<svg width="28" height="28" viewBox="0 0 28 28" fill="none" xmlns="http://www.w3.org/2000/svg">
<path d="M13.9997 11.2159C12.4649 11.2159 11.2152 12.4649 11.2152 13.9997C11.2152 15.5351 12.4649 16.7848 13.9997 16.7848C15.5351 16.7848 16.7841 15.5351 16.7841 13.9997C16.7841 12.4649 15.5351 11.2159 13.9997 11.2159ZM13.9997 11.2159C12.4649 11.2159 11.2152 12.4649 11.2152 13.9997C11.2152 15.5351 12.4649 16.7848 13.9997 16.7848C15.5351 16.7848 16.7841 15.5351 16.7841 13.9997C16.7841 12.4649 15.5351 11.2159 13.9997 11.2159ZM18.6384 6.67606H9.3616C7.88089 6.67606 6.67606 7.88089 6.67606 9.3616V18.6384C6.67606 20.1191 7.88089 21.3239 9.3616 21.3239H18.6384C20.1191 21.3239 21.3239 20.1191 21.3239 18.6384V9.3616C21.3239 7.88089 20.1191 6.67606 18.6384 6.67606ZM13.9997 18.8221C11.3412 18.8221 9.17789 16.6588 9.17789 13.9997C9.17789 11.3412 11.3412 9.17789 13.9997 9.17789C16.6588 9.17789 18.8221 11.3412 18.8221 13.9997C18.8221 16.6588 16.6588 18.8221 13.9997 18.8221ZM18.9769 10.1751C18.3478 10.1751 17.836 9.66327 17.836 9.03412C17.836 8.40498 18.3478 7.89318 18.9769 7.89318C19.6061 7.89318 20.1179 8.40498 20.1179 9.03412C20.1179 9.66327 19.6061 10.1751 18.9769 10.1751ZM13.9997 11.2159C12.4649 11.2159 11.2152 12.4649 11.2152 13.9997C11.2152 15.5351 12.4649 16.7848 13.9997 16.7848C15.5351 16.7848 16.7841 15.5351 16.7841 13.9997C16.7841 12.4649 15.5351 11.2159 13.9997 11.2159ZM18.6384 6.67606H9.3616C7.88089 6.67606 6.67606 7.88089 6.67606 9.3616V18.6384C6.67606 20.1191 7.88089 21.3239 9.3616 21.3239H18.6384C20.1191 21.3239 21.3239 20.1191 21.3239 18.6384V9.3616C21.3239 7.88089 20.1191 6.67606 18.6384 6.67606ZM13.9997 18.8221C11.3412 18.8221 9.17789 16.6588 9.17789 13.9997C9.17789 11.3412 11.3412 9.17789 13.9997 9.17789C16.6588 9.17789 18.8221 11.3412 18.8221 13.9997C18.8221 16.6588 16.6588 18.8221 13.9997 18.8221ZM18.9769 10.1751C18.3478 10.1751 17.836 9.66327 17.836 9.03412C17.836 8.40498 18.3478 7.89318 18.9769 7.89318C19.6061 7.89318 20.1179 8.40498 20.1179 9.03412C20.1179 9.66327 19.6061 10.1751 18.9769 10.1751ZM13.9997 11.2159C12.4649 11.2159 11.2152 12.4649 11.2152 13.9997C11.2152 15.5351 12.4649 16.7848 13.9997 16.7848C15.5351 16.7848 16.7841 15.5351 16.7841 13.9997C16.7841 12.4649 15.5351 11.2159 13.9997 11.2159ZM0 0V28H28V0H0ZM23.3613 18.6384C23.3613 21.2428 21.2428 23.3613 18.6384 23.3613H9.3616C6.75716 23.3613 4.63871 21.2428 4.63871 18.6384V9.3616C4.63871 6.75716 6.75716 4.63871 9.3616 4.63871H18.6384C21.2428 4.63871 23.3613 6.75716 23.3613 9.3616V18.6384ZM18.6384 6.67606H9.3616C7.88089 6.67606 6.67606 7.88089 6.67606 9.3616V18.6384C6.67606 20.1191 7.88089 21.3239 9.3616 21.3239H18.6384C20.1191 21.3239 21.3239 20.1191 21.3239 18.6384V9.3616C21.3239 7.88089 20.1191 6.67606 18.6384 6.67606ZM13.9997 18.8221C11.3412 18.8221 9.17789 16.6588 9.17789 13.9997C9.17789 11.3412 11.3412 9.17789 13.9997 9.17789C16.6588 9.17789 18.8221 11.3412 18.8221 13.9997C18.8221 16.6588 16.6588 18.8221 13.9997 18.8221ZM18.9769 10.1751C18.3478 10.1751 17.836 9.66327 17.836 9.03412C17.836 8.40498 18.3478 7.89318 18.9769 7.89318C19.6061 7.89318 20.1179 8.40498 20.1179 9.03412C20.1179 9.66327 19.6061 10.1751 18.9769 10.1751ZM13.9997 11.2159C12.4649 11.2159 11.2152 12.4649 11.2152 13.9997C11.2152 15.5351 12.4649 16.7848 13.9997 16.7848C15.5351 16.7848 16.7841 15.5351 16.7841 13.9997C16.7841 12.4649 15.5351 11.2159 13.9997 11.2159ZM13.9997 11.2159C12.4649 11.2159 11.2152 12.4649 11.2152 13.9997C11.2152 15.5351 12.4649 16.7848 13.9997 16.7848C15.5351 16.7848 16.7841 15.5351 16.7841 13.9997C16.7841 12.4649 15.5351 11.2159 13.9997 11.2159ZM13.9997 11.2159C12.4649 11.2159 11.2152 12.4649 11.2152 13.9997C11.2152 15.5351 12.4649 16.7848 13.9997 16.7848C15.5351 16.7848 16.7841 15.5351 16.7841 13.9997C16.7841 12.4649 15.5351 11.2159 13.9997 11.2159ZM18.6384 6.67606H9.3616C7.88089 6.67606 6.67606 7.88089 6.67606 9.3616V18.6384C6.67606 20.1191 7.88089 21.3239 9.3616 21.3239H18.6384C20.1191 21.3239 21.3239 20.1191 21.3239 18.6384V9.3616C21.3239 7.88089 20.1191 6.67606 18.6384 6.67606ZM13.9997 18.8221C11.3412 18.8221 9.17789 16.6588 9.17789 13.9997C9.17789 11.3412 11.3412 9.17789 13.9997 9.17789C16.6588 9.17789 18.8221 11.3412 18.8221 13.9997C18.8221 16.6588 16.6588 18.8221 13.9997 18.8221ZM18.9769 10.1751C18.3478 10.1751 17.836 9.66327 17.836 9.03412C17.836 8.40498 18.3478 7.89318 18.9769 7.89318C19.6061 7.89318 20.1179 8.40498 20.1179 9.03412C20.1179 9.66327 19.6061 10.1751 18.9769 10.1751ZM13.9997 11.2159C12.4649 11.2159 11.2152 12.4649 11.2152 13.9997C11.2152 15.5351 12.4649 16.7848 13.9997 16.7848C15.5351 16.7848 16.7841 15.5351 16.7841 13.9997C16.7841 12.4649 15.5351 11.2159 13.9997 11.2159ZM13.9997 11.2159C12.4649 11.2159 11.2152 12.4649 11.2152 13.9997C11.2152 15.5351 12.4649 16.7848 13.9997 16.7848C15.5351 16.7848 16.7841 15.5351 16.7841 13.9997C16.7841 12.4649 15.5351 11.2159 13.9997 11.2159ZM13.9997 11.2159C12.4649 11.2159 11.2152 12.4649 11.2152 13.9997C11.2152 15.5351 12.4649 16.7848 13.9997 16.7848C15.5351 16.7848 16.7841 15.5351 16.7841 13.9997C16.7841 12.4649 15.5351 11.2159 13.9997 11.2159ZM18.6384 6.67606H9.3616C7.88089 6.67606 6.67606 7.88089 6.67606 9.3616V18.6384C6.67606 20.1191 7.88089 21.3239 9.3616 21.3239H18.6384C20.1191 21.3239 21.3239 20.1191 21.3239 18.6384V9.3616C21.3239 7.88089 20.1191 6.67606 18.6384 6.67606ZM13.9997 18.8221C11.3412 18.8221 9.17789 16.6588 9.17789 13.9997C9.17789 11.3412 11.3412 9.17789 13.9997 9.17789C16.6588 9.17789 18.8221 11.3412 18.8221 13.9997C18.8221 16.6588 16.6588 18.8221 13.9997 18.8221ZM18.9769 10.1751C18.3478 10.1751 17.836 9.66327 17.836 9.03412C17.836 8.40498 18.3478 7.89318 18.9769 7.89318C19.6061 7.89318 20.1179 8.40498 20.1179 9.03412C20.1179 9.66327 19.6061 10.1751 18.9769 10.1751ZM13.9997 11.2159C12.4649 11.2159 11.2152 12.4649 11.2152 13.9997C11.2152 15.5351 12.4649 16.7848 13.9997 16.7848C15.5351 16.7848 16.7841 15.5351 16.7841 13.9997C16.7841 12.4649 15.5351 11.2159 13.9997 11.2159Z" fill="white"/>
</svg>
