<svg width="40" height="40" viewBox="0 0 40 40" fill="none" xmlns="http://www.w3.org/2000/svg">
<path d="M36.1506 13.5466L33.3829 10.7789L35.4635 8.69915C35.6474 8.5154 35.7508 8.2664 35.7508 8.00596C35.7508 7.74553 35.6474 7.49653 35.4635 7.31271L32.678 4.52713C32.3103 4.15942 31.6591 4.15942 31.2914 4.52713L29.2116 6.60768L26.4436 3.8395C25.6778 3.07368 24.436 3.07368 23.6702 3.8395C22.9042 4.60532 22.9042 5.84703 23.6702 6.61291L33.3771 16.32C34.1431 17.0858 35.3848 17.0858 36.1506 16.32C36.9164 15.5542 36.9164 14.3125 36.1506 13.5466Z" fill="#163185"/>
<path d="M16.3302 33.3869L6.62323 23.6798C5.85728 22.914 4.6157 22.914 3.84975 23.6798C3.08394 24.4458 3.08394 25.6875 3.84975 26.4533L6.61787 29.2214L4.54137 31.2971C4.35749 31.481 4.25407 31.7299 4.25407 31.9903C4.25407 32.2508 4.35749 32.4998 4.54137 32.6836L7.32695 35.4682C7.51842 35.6598 7.76931 35.7556 8.0202 35.7556C8.27109 35.7556 8.52199 35.6598 8.71346 35.4683L10.7891 33.3927L13.5568 36.1604C14.3226 36.9262 15.5643 36.9262 16.3302 36.1604C17.0961 35.3944 17.0961 34.1527 16.3302 33.3869Z" fill="#163185"/>
<path d="M20.8964 14.9333L14.9434 20.9067L19.1035 25.0668L25.0566 19.0934L20.8964 14.9333Z" fill="#163185"/>
<path d="M33.3767 19.0932L20.8962 6.61269C20.1304 5.84688 18.8886 5.84688 18.1228 6.61269C17.3569 7.37864 17.3569 8.62022 18.1228 9.38617L30.6033 21.8667C31.3691 22.6325 32.6108 22.6325 33.3767 21.8667C34.1426 21.1008 34.1426 19.8591 33.3767 19.0932Z" fill="#163185"/>
<path d="M21.8772 30.6135L9.39664 18.133C8.63082 17.3671 7.38911 17.3671 6.62329 18.133C5.85734 18.8989 5.85734 20.1406 6.62329 20.9064L19.1038 33.3869C19.8696 34.1527 21.1113 34.1527 21.8772 33.3869C22.6432 32.6211 22.6432 31.3794 21.8772 30.6135Z" fill="#163185"/>
</svg>
