<svg width="40" height="28" viewBox="0 0 40 28" fill="none" xmlns="http://www.w3.org/2000/svg">
<path d="M37.7618 24.765C37.8088 24.6245 37.8355 24.4738 37.8355 24.3172V7.87067C37.8355 7.09103 37.2031 6.4591 36.4235 6.4591H28.5648V23.9646C28.5648 24.2457 28.514 24.5144 28.4243 24.765H27.5025C27.5494 24.6245 27.5761 24.4738 27.5761 24.3172V1.72919C27.5761 0.949551 26.9438 0.317627 26.1641 0.317627H13.835C13.0554 0.317627 12.4235 0.949551 12.4235 1.72919V24.3172C12.4235 24.4738 12.4501 24.6245 12.4971 24.765H11.5757C11.486 24.5144 11.4352 24.2457 11.4352 23.9646V6.4591H3.76488C2.98524 6.4591 2.35331 7.09103 2.35331 7.87067V24.3172C2.35331 24.4738 2.37998 24.6245 2.42654 24.765H0V27.683H40V24.765H37.7618ZM6.58801 18.9994H4.56441V16.9762H6.58801V18.9994ZM6.58801 15.447H4.56441V13.4234H6.58801V15.447ZM6.58801 12.0118H4.56441V9.98823H6.58801V12.0118ZM9.74128 18.9994H7.71769V16.9762H9.74128V18.9994ZM9.74128 15.447H7.71769V13.4234H9.74128V15.447ZM9.74128 12.0118H7.71769V9.98823H9.74128V12.0118ZM23.1412 24.6706H17.1999V17.2585H23.1412V24.6706ZM19.9998 10.9054C17.2516 10.9054 15.0235 8.6774 15.0235 5.92918C15.0235 3.18054 17.252 0.952514 19.9998 0.952514C22.7484 0.952514 24.9765 3.18054 24.9765 5.92918C24.9765 8.67782 22.7484 10.9054 19.9998 10.9054ZM32.8469 18.9994H30.8238V16.9762H32.8469V18.9994ZM32.8469 15.447H30.8238V13.4234H32.8469V15.447ZM32.8469 12.0118H30.8238V9.98823H32.8469V12.0118ZM35.9998 18.9994H33.9766V16.9762H35.9998V18.9994ZM35.9998 15.447H33.9766V13.4234H35.9998V15.447ZM35.9998 12.0118H33.9766V9.98823H35.9998V12.0118ZM21.2349 4.69412H23.1408V7.16425H21.2349V9.07103H18.7647V7.16425H16.8588V4.69412H18.7647V2.78818H21.2349V4.69412Z" fill="#163185"/>
</svg>
