<svg width="35" height="33" viewBox="0 0 35 33" fill="none" xmlns="http://www.w3.org/2000/svg">
<path d="M31.2766 3V0H2.97872V3L0 13.5V15.219C0 16.7827 0.92117 18.1763 2.23404 18.8722C2.23404 23.5028 2.23404 33 2.23404 33H8.19149V21H14.1489V33H32.0213V19.1775C33.7177 18.6728 35 17.0648 35 15.219V13.5L31.2766 3ZM4.09574 17.844C2.86851 17.844 1.48936 16.8525 1.48936 15H6.70213C6.70213 16.8495 5.32447 17.844 4.09574 17.844ZM25.3191 3L26.8085 13.5C23.8871 13.5 23.7397 13.5 21.5957 13.5L20.8511 3H25.3191ZM26.8085 15C26.8085 16.8375 25.4413 17.844 24.2021 17.844C22.9354 17.844 21.5957 16.8142 21.5957 15H26.8085ZM10.7979 17.844C9.57064 17.844 8.19149 16.8525 8.19149 15H13.4043C13.4043 16.8495 12.0266 17.844 10.7979 17.844ZM13.4043 13.5C11.3326 13.5 11.0406 13.5 8.19149 13.5L9.68085 3H14.1489L13.4043 13.5ZM14.8936 15H20.1064C20.1064 16.8495 18.7287 17.844 17.5 17.844C16.2728 17.844 14.8936 16.8525 14.8936 15ZM29.0426 30H17.1277V21H29.0426V30ZM30.9043 17.844C29.6376 17.844 28.2979 16.8142 28.2979 15H33.5106C33.5106 16.8375 32.1434 17.844 30.9043 17.844Z" fill="#163185"/>
</svg>
