<?xml version="1.0" standalone="no"?>
<!DOCTYPE svg PUBLIC "-//W3C//DTD SVG 20010904//EN"
 "http://www.w3.org/TR/2001/REC-SVG-20010904/DTD/svg10.dtd">
<svg version="1.0" xmlns="http://www.w3.org/2000/svg"
 width="184.000000pt" height="184.000000pt" viewBox="0 0 184.000000 184.000000"
 preserveAspectRatio="xMidYMid meet">
<metadata>
Created by potrace 1.14, written by Peter Selinger 2001-2017
</metadata>
<g transform="translate(0.000000,184.000000) scale(0.100000,-0.100000)"
fill="#000000" stroke="none">
<path d="M790 1070 c0 -117 2 -130 18 -129 10 0 12 3 5 6 -20 7 -15 23 10 34
21 9 21 9 1 6 -17 -4 -21 0 -21 19 0 15 6 24 21 27 20 4 20 4 -1 6 -20 1 -23
6 -21 39 1 36 1 36 5 5 3 -26 9 -33 26 -32 17 1 18 2 5 6 -28 7 -22 55 10 86
34 32 43 33 67 7 10 -11 22 -20 27 -20 5 0 -4 11 -20 25 -38 32 -42 31 -77 -5
-37 -39 -45 -38 -45 5 l0 34 98 4 97 3 -102 2 -103 2 0 -130z"/>
<path d="M979 1178 c-6 -12 -5 -48 1 -48 4 0 7 11 6 25 -1 22 -3 30 -7 23z"/>
<path d="M961 1110 c16 -9 15 -60 -1 -60 -4 0 -5 12 -2 28 6 34 -3 27 -11 -9
-6 -22 -3 -28 16 -34 20 -7 19 -8 -10 -12 -17 -2 -37 -12 -44 -21 -11 -14 -11
-15 1 -4 8 6 28 12 45 12 31 0 31 0 29 48 -1 26 -3 50 -3 55 -1 4 -9 7 -18 7
-16 -1 -16 -2 -2 -10z"/>
<path d="M890 1062 c0 -4 9 -8 20 -9 11 -1 20 2 20 5 0 4 -9 8 -20 9 -11 1
-20 -2 -20 -5z"/>
<path d="M868 1017 c14 -6 26 -7 32 -1 5 5 -4 9 -23 10 -30 1 -30 1 -9 -9z"/>
<path d="M834 1006 c11 -9 24 -16 30 -16 12 0 7 5 -24 19 -24 11 -24 11 -6 -3z"/>
<path d="M954 988 c10 -6 22 -6 26 -2 5 5 -3 10 -18 11 -22 1 -24 0 -8 -9z"/>
<path d="M907 979 c-10 -6 -27 -9 -38 -6 -10 3 -17 1 -13 -4 8 -14 38 -11 60
6 22 17 17 19 -9 4z"/>
<path d="M970 960 c0 -6 -29 -9 -70 -7 -39 1 -70 -1 -70 -5 0 -5 33 -8 74 -8
56 0 75 4 80 15 3 8 1 15 -4 15 -6 0 -10 -4 -10 -10z"/>
<path d="M226 845 c-9 -22 -23 -52 -31 -67 -13 -26 -13 -28 4 -28 12 0 17 7
17 22 -1 14 6 24 18 26 21 4 38 -16 31 -35 -2 -8 4 -13 15 -13 19 0 19 1 -1
52 -34 86 -36 88 -53 43z m24 -26 c0 -5 -7 -9 -15 -9 -9 0 -12 6 -9 15 6 15
24 11 24 -6z"/>
<path d="M350 860 c-20 -20 -25 -45 -14 -75 8 -20 80 -55 113 -54 l26 1 -28
10 -27 10 20 25 c11 14 20 34 20 44 0 27 -36 59 -65 59 -14 0 -34 -9 -45 -20z
m73 -11 c29 -41 -14 -112 -48 -79 -18 19 -25 60 -13 83 12 23 44 22 61 -4z"/>
<path d="M496 868 c5 -7 9 -30 10 -51 4 -61 37 -84 78 -54 19 14 33 87 17 87
-5 0 -8 -12 -6 -26 1 -16 -5 -34 -17 -46 -18 -18 -22 -19 -36 -5 -17 18 -23
64 -10 90 7 14 4 17 -17 17 -18 0 -24 -4 -19 -12z"/>
<path d="M588 868 c9 -9 15 -9 24 0 9 9 7 12 -12 12 -19 0 -21 -3 -12 -12z"/>
<path d="M690 856 c-5 -14 -18 -44 -29 -66 -18 -37 -18 -40 -2 -40 12 0 17 7
17 22 -1 14 6 24 18 26 21 4 38 -16 31 -35 -2 -8 4 -13 15 -13 20 0 20 1 4 38
-9 20 -19 47 -21 60 -8 33 -22 37 -33 8z m20 -31 c0 -8 -4 -15 -10 -15 -5 0
-10 7 -10 15 0 8 5 15 10 15 6 0 10 -7 10 -15z"/>
<path d="M884 858 c-5 -17 1 -27 26 -48 19 -16 30 -32 26 -38 -10 -17 -27 -15
-43 6 -13 16 -14 16 -11 -3 4 -26 56 -28 72 -2 9 16 6 23 -21 46 -34 28 -43
51 -20 51 7 0 18 -5 25 -12 9 -9 12 -8 12 5 0 27 -57 23 -66 -5z"/>
<path d="M1005 815 c0 -58 2 -65 20 -65 12 0 16 3 9 8 -12 7 -15 82 -3 82 3 0
12 -18 19 -41 8 -22 17 -42 20 -44 4 -3 17 19 29 48 l21 52 -3 -53 c-2 -42 1
-52 14 -52 13 0 15 10 11 56 -3 41 -1 59 9 65 10 6 6 9 -13 9 -23 0 -29 -6
-39 -40 -14 -47 -28 -47 -44 1 -7 21 -19 35 -31 37 -17 2 -19 -4 -19 -63z"/>
<path d="M1240 877 c0 -2 -11 -31 -24 -65 -19 -49 -22 -62 -10 -62 8 0 13 3
13 8 -5 30 3 43 24 40 16 -2 22 -9 21 -25 0 -16 5 -23 19 -23 11 0 17 5 14 13
-2 6 -13 36 -23 65 -10 28 -22 52 -26 52 -5 0 -8 -1 -8 -3z m6 -64 c-10 -10
-19 5 -10 18 6 11 8 11 12 0 2 -7 1 -15 -2 -18z"/>
<path d="M1350 842 c3 -20 3 -49 -1 -65 -6 -22 -4 -27 11 -27 14 0 18 6 14 24
-2 14 0 28 6 31 5 3 10 2 10 -3 0 -14 40 -52 55 -52 9 0 6 9 -10 26 -27 29
-30 40 -15 49 16 10 12 42 -6 49 -9 3 -28 6 -43 6 -27 0 -28 -1 -21 -38z m54
19 c8 -13 -4 -41 -18 -41 -6 0 -13 11 -14 25 -2 25 20 36 32 16z"/>
<path d="M1477 874 c-4 -4 -7 -12 -7 -18 0 -6 5 -5 12 2 29 29 40 14 36 -48
-2 -48 0 -60 12 -60 12 0 14 12 12 60 -4 62 7 76 37 48 11 -11 13 -10 9 2 -5
16 -97 27 -111 14z"/>
<path d="M708 683 c7 -3 16 -2 19 1 4 3 -2 6 -13 5 -11 0 -14 -3 -6 -6z"/>
<path d="M833 675 c-3 -9 -3 -18 -1 -21 3 -3 8 4 11 16 6 23 -1 27 -10 5z"/>
<path d="M857 675 c-4 -8 -3 -16 1 -19 4 -3 9 4 9 15 2 23 -3 25 -10 4z"/>
<path d="M922 670 c0 -14 2 -19 5 -12 2 6 2 18 0 25 -3 6 -5 1 -5 -13z"/>
<path d="M997 675 c-4 -8 -3 -16 1 -19 4 -3 9 4 9 15 2 23 -3 25 -10 4z"/>
<path d="M770 660 c0 -5 5 -10 11 -10 5 0 7 5 4 10 -3 6 -8 10 -11 10 -2 0 -4
-4 -4 -10z"/>
<path d="M1047 659 c7 -7 15 -10 18 -7 3 3 -2 9 -12 12 -14 6 -15 5 -6 -5z"/>
</g>
</svg>
