<svg width="40" height="40" viewBox="0 0 40 40" fill="none" xmlns="http://www.w3.org/2000/svg">
<path d="M6.50875 14.375H33.4912L37.2412 18.125H2.75875L6.50875 14.375ZM1.875 21.875V19.375H6.875V21.875C6.875 23.2537 5.75375 24.375 4.375 24.375C2.99625 24.375 1.875 23.2537 1.875 21.875ZM8.125 19.375H13.125V21.875C13.125 23.2537 12.0037 24.375 10.625 24.375C9.24625 24.375 8.125 23.2537 8.125 21.875V19.375ZM14.375 19.375H19.375V21.875C19.375 23.2537 18.2537 24.375 16.875 24.375C15.4963 24.375 14.375 23.2537 14.375 21.875V19.375ZM20.625 19.375H25.625V21.875C25.625 23.2537 24.5037 24.375 23.125 24.375C21.7463 24.375 20.625 23.2537 20.625 21.875V19.375ZM26.875 19.375H31.875V21.875C31.875 23.2537 30.7537 24.375 29.375 24.375C27.9963 24.375 26.875 23.2537 26.875 21.875V19.375ZM15.625 38.125H11.875V29.375H15.625V38.125ZM10.625 38.125H6.875V29.375H10.625V38.125ZM33.125 38.125H29.375V29.375H33.125V38.125ZM28.125 38.125H24.375V29.375H28.125V38.125ZM36.875 38.125H34.375V28.75C34.375 28.405 34.0956 28.125 33.75 28.125H23.75C23.4044 28.125 23.125 28.405 23.125 28.75V38.125H16.875V28.75C16.875 28.405 16.5956 28.125 16.25 28.125H6.25C5.90438 28.125 5.625 28.405 5.625 28.75V38.125H3.125V25.4063C3.51688 25.545 3.93625 25.625 4.375 25.625C5.67875 25.625 6.8275 24.9556 7.5 23.9438C8.1725 24.9563 9.32125 25.625 10.625 25.625C11.9288 25.625 13.0775 24.9556 13.75 23.9438C14.4225 24.9563 15.5712 25.625 16.875 25.625C18.1787 25.625 19.3275 24.9556 20 23.9438C20.6725 24.9563 21.8213 25.625 23.125 25.625C24.4287 25.625 25.5775 24.9556 26.25 23.9438C26.9225 24.9563 28.0713 25.625 29.375 25.625C30.6787 25.625 31.8275 24.9556 32.5 23.9438C33.1725 24.9563 34.3213 25.625 35.625 25.625C36.0638 25.625 36.4831 25.545 36.875 25.4063V38.125ZM35.625 24.375C34.2463 24.375 33.125 23.2537 33.125 21.875V19.375H38.125V21.875C38.125 23.2537 37.0037 24.375 35.625 24.375Z" fill="#163185"/>
<path d="M12.5 11.25H13.75V13.75H12.5V11.25Z" fill="#163185"/>
<path d="M15 11.25H16.25V13.75H15V11.25Z" fill="#163185"/>
<path d="M23.75 11.25H25V13.75H23.75V11.25Z" fill="#163185"/>
<path d="M26.25 11.25H27.5V13.75H26.25V11.25Z" fill="#163185"/>
<path d="M18.125 4.375C17.78 4.375 17.5 4.65562 17.5 5V6.875H18.75V5C18.75 4.65562 18.47 4.375 18.125 4.375Z" fill="#163185"/>
<path d="M10 1.875V10.625H30V1.875H10ZM15 4.375H13.125C12.78 4.375 12.5 4.65563 12.5 5V7.5C12.5 7.84438 12.78 8.125 13.125 8.125H15V9.375H13.125C12.0912 9.375 11.25 8.53375 11.25 7.5V5C11.25 3.96625 12.0912 3.125 13.125 3.125H15V4.375ZM20 9.375H18.75V8.125H17.5V9.375H16.25V5C16.25 3.96625 17.0912 3.125 18.125 3.125C19.1587 3.125 20 3.96625 20 5V9.375ZM24.375 4.375H22.5V5.625H24.375V6.875H22.5V9.375H21.25V4.375C21.25 3.68562 21.8106 3.125 22.5 3.125H24.375V4.375ZM28.75 4.375H26.875V5.625H28.75V6.875H26.875V8.125H28.75V9.375H26.875C26.1856 9.375 25.625 8.81437 25.625 8.125V4.375C25.625 3.68562 26.1856 3.125 26.875 3.125H28.75V4.375Z" fill="#163185"/>
</svg>
