<svg width="38" height="38" viewBox="0 0 38 38" fill="none" xmlns="http://www.w3.org/2000/svg">
<path d="M37.3676 15.8641L32.2413 11.5281V4.56891H27.8276V7.79488L19.0001 0.328369L0.632812 15.8641L2.058 17.5491L3.55226 16.2852H3.55218V37.6718H7.79118L7.96589 16.7066H30.0344L29.8597 37.6718H34.4481V16.2852L35.9424 17.5491L37.3676 15.8641Z" fill="#163185"/>
<path d="M9.98535 37.6716H17.8969V33.2579H17.7866C14.8053 33.2579 12.3798 30.8324 12.3798 27.8511V24.4305H14.697C16.451 24.4305 18.0118 25.2705 19.0003 26.5688C19.9888 25.2705 21.5497 24.4305 23.3037 24.4305H25.6209V27.8511C25.6209 30.8324 23.1954 33.2579 20.2141 33.2579H20.1038V37.6716H27.6402L27.8278 18.9133H10.1729L9.98535 37.6716Z" fill="#163185"/>
<path d="M14.6968 26.6375H14.5864V27.8512C14.5864 29.6157 16.022 31.0512 17.7864 31.0512H17.8967V29.8374C17.8967 28.0729 16.4613 26.6375 14.6968 26.6375Z" fill="#163185"/>
<path d="M23.4138 27.8512V26.6375H23.3035C21.5391 26.6375 20.1035 28.0729 20.1035 29.8374V31.0512H20.2139C21.9784 31.0512 23.4138 29.6157 23.4138 27.8512Z" fill="#163185"/>
</svg>
