<svg width="32" height="34" viewBox="0 0 32 34" fill="none" xmlns="http://www.w3.org/2000/svg">
<path d="M29.9826 8.13069L30.0105 8.10279L23.0842 1.19511L21.1132 3.16606L25.0365 7.08939C23.2887 7.75877 22.0429 9.44157 22.0429 11.4218C22.0429 13.9878 24.1254 16.0703 26.6914 16.0703C27.3514 16.0703 27.9837 15.9309 28.5507 15.6799V29.0862C28.5508 30.1089 27.7141 30.9456 26.6914 30.9456C25.6688 30.9456 24.8321 30.1089 24.8321 29.0863V20.7189C24.8321 18.6643 23.1679 17.0001 21.1132 17.0001H19.2538V3.98423C19.2537 1.92952 17.5896 0.265381 15.535 0.265381H4.37852C2.32381 0.265381 0.659668 1.92952 0.659668 3.98423V33.7348H19.2537V19.7892H22.0429V29.0863C22.0429 31.6523 24.1254 33.7348 26.6914 33.7348C29.2573 33.7348 31.3399 31.6523 31.3399 29.0863V11.4218C31.3399 10.1388 30.8193 8.97675 29.9826 8.13069ZM15.535 13.2812H4.37852V3.98423H15.535V13.2812ZM26.6914 13.2812C25.6688 13.2812 24.8321 12.4445 24.8321 11.4218C24.8321 10.3992 25.6688 9.56246 26.6914 9.56246C27.7141 9.56246 28.5508 10.3992 28.5508 11.4218C28.5508 12.4445 27.7141 13.2812 26.6914 13.2812Z" fill="#163185"/>
</svg>
