<svg width="40" height="40" viewBox="0 0 40 40" fill="none" xmlns="http://www.w3.org/2000/svg">
<path d="M14.375 31.875H15.625V33.125H14.375V31.875Z" fill="#163185"/>
<path d="M35 38.1249V15.4436L20 5.2605L5 15.4436V22.1143C5.89625 22.1143 6.69125 22.6511 7.0275 23.4824C8.585 27.3336 9.375 29.9474 9.375 31.2499C9.375 33.8561 7.80062 35.8705 5.625 36.198V34.9311C7.05125 34.6143 8.125 33.2149 8.125 31.2499C8.125 29.7849 6.79313 26.2374 5.86812 23.9505C5.55188 23.1686 4.4475 23.1686 4.13125 23.9505C3.20688 26.2374 1.875 29.7849 1.875 31.2499C1.875 33.2155 2.94875 34.6143 4.375 34.9311V38.1249H1.25V39.3749H38.75V38.1249H35ZM26.25 29.9999L27.5 28.1249L28.75 29.9999V31.8749H31.25V29.9999L32.5 28.1249L33.75 29.9999V38.1249H31.25V34.3749H28.75V38.1249H26.25V34.3749H23.75V38.1249H21.25V29.9999L22.5 28.1249L23.75 29.9999V31.8749H26.25V29.9999ZM20.625 17.4999H23.75V18.7499C23.75 19.7855 22.9106 20.6249 21.875 20.6249H20.625V17.4999ZM21.875 13.1249C22.9106 13.1249 23.75 13.9643 23.75 14.9999V16.2499H20.625V13.1249H21.875ZM16.25 14.9999C16.25 13.9643 17.0894 13.1249 18.125 13.1249H19.375V16.2499H16.25V14.9999ZM16.25 17.4999H19.375V20.6249H18.125C17.0894 20.6249 16.25 19.7855 16.25 18.7499V17.4999ZM17.5 26.2499V38.1249H10.625V26.2499H17.5Z" fill="#163185"/>
<path d="M20.0002 4.01075L36.7983 15.4095L38.2021 13.3401L20.0002 0.989502L1.79834 13.3401L3.20209 15.4095L20.0002 4.01075Z" fill="#163185"/>
</svg>
