<svg width="40" height="40" viewBox="0 0 40 40" fill="none" xmlns="http://www.w3.org/2000/svg">
<g clip-path="url(#clip0_270:1433)">
<path d="M26.6209 4.29801L25.4489 2.75944L26.6209 1.22106C26.8754 0.887251 26.8112 0.410298 26.4774 0.155727C26.3445 0.0543934 26.1819 -0.000368468 26.0148 1.24845e-05H20.0148C19.5917 -0.00236847 19.2454 0.336108 19.2383 0.759155V7.52382H20.7621V5.52382H26.0148C26.4365 5.52287 26.7776 5.1802 26.7767 4.75849C26.7763 4.59211 26.7215 4.43039 26.6209 4.29801Z" fill="#163185"/>
<path d="M2.55843 24C1.93776 23.9968 1.43195 24.4973 1.42871 25.1178C1.42871 25.1228 1.42871 25.1277 1.42871 25.1327V40H11.0478V24H2.55843ZM5.04776 35.8095C5.04776 36.2303 4.70662 36.5714 4.28585 36.5714C3.86509 36.5714 3.52395 36.2303 3.52395 35.8095V34.1723C3.52395 33.7515 3.86509 33.4104 4.28585 33.4104C4.70662 33.4104 5.04776 33.7515 5.04776 34.1723V35.8095ZM5.04776 29.4326C5.04776 29.8534 4.70662 30.1945 4.28585 30.1945C3.86509 30.1945 3.52395 29.8534 3.52395 29.4326V27.7953C3.52395 27.3745 3.86509 27.0334 4.28585 27.0334C4.70662 27.0334 5.04776 27.3745 5.04776 27.7953V29.4326ZM8.95252 35.8095C8.95252 36.2303 8.61138 36.5714 8.19061 36.5714C7.76985 36.5714 7.42871 36.2303 7.42871 35.8095V34.1723C7.42871 33.7515 7.76985 33.4104 8.19061 33.4104C8.61138 33.4104 8.95252 33.7515 8.95252 34.1723V35.8095ZM8.95252 29.4326C8.95252 29.8534 8.61138 30.1945 8.19061 30.1945C7.76985 30.1945 7.42871 29.8534 7.42871 29.4326V27.7953C7.42871 27.3745 7.76985 27.0334 8.19061 27.0334C8.61138 27.0334 8.95252 27.3745 8.95252 27.7953V29.4326Z" fill="#163185"/>
<path d="M19.8774 13.3811L12.5713 19.5958V40.0002H15.9046V32.0658C15.8945 31.6714 16.206 31.3436 16.6004 31.3334C16.6133 31.3331 16.6261 31.3331 16.639 31.3335H23.1883C23.5745 31.3238 23.8955 31.6289 23.9052 32.015C23.9056 32.032 23.9055 32.0488 23.9046 32.0658V40.0002H27.1427V19.5887L19.8774 13.3811ZM23.1883 27.0478H16.596C16.1752 27.0478 15.834 26.7066 15.834 26.2859C15.834 25.8651 16.1752 25.524 16.596 25.524H23.1883C23.6091 25.524 23.9502 25.8651 23.9502 26.2859C23.9502 26.7066 23.6091 27.0478 23.1883 27.0478Z" fill="#163185"/>
<path d="M37.4564 24C37.4515 24 37.4465 24 37.4415 24H28.6665V40H38.5713V25.1327C38.5762 24.512 38.077 24.005 37.4564 24ZM32.5713 35.8095C32.5713 36.2303 32.2301 36.5714 31.8094 36.5714C31.3886 36.5714 31.0475 36.2303 31.0475 35.8095V34.1723C31.0475 33.7515 31.3886 33.4104 31.8094 33.4104C32.2301 33.4104 32.5713 33.7515 32.5713 34.1723V35.8095ZM32.5713 29.4326C32.5713 29.8533 32.2301 30.1945 31.8094 30.1945C31.3886 30.1945 31.0475 29.8533 31.0475 29.4326V27.7952C31.0475 27.3745 31.3886 27.0333 31.8094 27.0333C32.2301 27.0333 32.5713 27.3745 32.5713 27.7952V29.4326ZM36.3808 35.8095C36.3808 36.2303 36.0396 36.5714 35.6189 36.5714C35.1981 36.5714 34.857 36.2303 34.857 35.8095V34.1723C34.857 33.7515 35.1981 33.4104 35.6189 33.4104C36.0396 33.4104 36.3808 33.7515 36.3808 34.1723V35.8095ZM36.3808 29.4326C36.3808 29.8533 36.0396 30.1945 35.6189 30.1945C35.1981 30.1945 34.857 29.8533 34.857 29.4326V27.7952C34.857 27.3745 35.1981 27.0333 35.6189 27.0333C36.0396 27.0333 36.3808 27.3745 36.3808 27.7952V29.4326Z" fill="#163185"/>
<path d="M19.9144 8.55591L9.01123 17.8902L10.3891 19.4935L19.4197 11.7988C19.7049 11.5557 20.1246 11.5561 20.4093 11.7998L29.4024 19.4967L30.8119 17.8858L19.9144 8.55591Z" fill="#163185"/>
<path d="M22.3811 32.8572H17.4287V40H22.3811V32.8572Z" fill="#163185"/>
</g>
<defs>
<clipPath id="clip0_270:1433">
<rect width="40" height="40" fill="white"/>
</clipPath>
</defs>
</svg>
