<svg width="9" height="18" viewBox="0 0 9 18" fill="none" xmlns="http://www.w3.org/2000/svg">
<path d="M8.66667 9.00016C8.6672 8.72757 8.57226 8.46339 8.39833 8.25349L2.565 1.25349C2.36697 1.01524 2.0824 0.865411 1.77391 0.836968C1.46541 0.808525 1.15825 0.903797 0.919996 1.10183C0.681743 1.29985 0.531915 1.58442 0.503472 1.89291C0.475029 2.20141 0.570301 2.50857 0.768329 2.74683L5.995 9.00016L0.954997 15.2535C0.858086 15.3728 0.785716 15.5101 0.742046 15.6575C0.698375 15.8049 0.684266 15.9595 0.700528 16.1124C0.716791 16.2652 0.763103 16.4134 0.836806 16.5483C0.910509 16.6832 1.01015 16.8022 1.13 16.8985C1.24995 17.0053 1.39069 17.0863 1.54337 17.1362C1.69606 17.1861 1.85741 17.204 2.01732 17.1886C2.17722 17.1733 2.33224 17.1251 2.47266 17.0471C2.61307 16.969 2.73586 16.8629 2.83333 16.7352L8.46833 9.73516C8.61477 9.51923 8.6846 9.26044 8.66667 9.00016Z" fill="#2196F3"/>
</svg>
