<svg width="20" height="15" viewBox="0 0 20 15" fill="none" xmlns="http://www.w3.org/2000/svg">
<path d="M0 1C0 0.734784 0.105357 0.48043 0.292893 0.292893C0.48043 0.105357 0.734784 0 1 0H19C19.2652 0 19.5196 0.105357 19.7071 0.292893C19.8946 0.48043 20 0.734784 20 1C20 1.26522 19.8946 1.51957 19.7071 1.70711C19.5196 1.89464 19.2652 2 19 2H1C0.734784 2 0.48043 1.89464 0.292893 1.70711C0.105357 1.51957 0 1.26522 0 1Z" fill="#252E3E"/>
<path d="M0 7.03223C0 6.76701 0.105357 6.51266 0.292893 6.32512C0.48043 6.13758 0.734784 6.03223 1 6.03223H19C19.2652 6.03223 19.5196 6.13758 19.7071 6.32512C19.8946 6.51266 20 6.76701 20 7.03223C20 7.29744 19.8946 7.5518 19.7071 7.73933C19.5196 7.92687 19.2652 8.03223 19 8.03223H1C0.734784 8.03223 0.48043 7.92687 0.292893 7.73933C0.105357 7.5518 0 7.29744 0 7.03223Z" fill="#252E3E"/>
<path d="M1 12.0645C0.734784 12.0645 0.48043 12.1698 0.292893 12.3573C0.105357 12.5449 0 12.7992 0 13.0645C0 13.3297 0.105357 13.584 0.292893 13.7716C0.48043 13.9591 0.734784 14.0645 1 14.0645H19C19.2652 14.0645 19.5196 13.9591 19.7071 13.7716C19.8946 13.584 20 13.3297 20 13.0645C20 12.7992 19.8946 12.5449 19.7071 12.3573C19.5196 12.1698 19.2652 12.0645 19 12.0645H1Z" fill="#252E3E"/>
</svg>
