<svg width="174" height="26" viewBox="0 0 174 26" fill="none" xmlns="http://www.w3.org/2000/svg">
<path fill-rule="evenodd" clip-rule="evenodd" d="M11.5549 1.75977L21.2191 9.6231L20.9026 10.009L11.5539 2.40232L2.30343 9.87954L1.98828 9.49266L11.5549 1.75977Z" fill="#134278"/>
<path fill-rule="evenodd" clip-rule="evenodd" d="M4.10352 7.93164H4.60383V13.8025H18.5051V7.93164H19.0052V14.3008H4.10352V7.93164Z" fill="#134278"/>
<path fill-rule="evenodd" clip-rule="evenodd" d="M20.6068 14.3439H2.29639V13.8457H20.6068V14.3439Z" fill="#0E325A"/>
<path fill-rule="evenodd" clip-rule="evenodd" d="M19.1029 15.9027C18.6315 15.7791 18.1833 15.7111 17.6682 15.8044C17.0142 15.9229 16.633 16.0202 16.2277 16.2289C15.8158 16.441 15.3695 16.7731 14.6014 17.3849C14.206 17.7743 13.5155 18.1871 12.7385 18.4327C11.9568 18.6799 11.0481 18.77 10.2367 18.4584C9.08878 18.094 8.38095 17.7284 7.76134 17.4069L7.75337 17.4029C7.14056 17.0847 6.62431 16.817 5.83604 16.6206C5.15036 16.4499 4.46663 16.6158 3.87674 16.8968C3.28763 17.1774 2.81549 17.5624 2.56989 17.7907L2.22852 17.4265C2.49723 17.1766 3.01114 16.7568 3.66088 16.4472C4.30983 16.1381 5.11772 15.9281 5.95728 16.1373C6.80306 16.3479 7.36342 16.6386 7.97429 16.9556L7.99236 16.9649C8.60575 17.2833 9.28502 17.634 10.3958 17.986L10.4032 17.9883L10.4106 17.9912C11.0786 18.25 11.8641 18.1863 12.5871 17.9578C13.3103 17.7292 13.9315 17.3477 14.2577 17.0226L14.2676 17.0129L14.2785 17.0042C15.0469 16.3918 15.5331 16.0256 15.998 15.7862C16.4715 15.5424 16.9132 15.4348 17.5788 15.3142C18.1953 15.2025 18.7244 15.2883 19.2302 15.4208C19.4122 15.4684 19.5853 15.5201 19.7573 15.5714C20.0771 15.6668 20.3926 15.7611 20.7542 15.8265L20.6649 16.3167C20.2784 16.2467 19.9125 16.1379 19.5756 16.0378C19.4109 15.9889 19.2529 15.942 19.1029 15.9027Z" fill="#02B6F2"/>
<path fill-rule="evenodd" clip-rule="evenodd" d="M19.1029 21.1606C18.6315 21.0371 18.1833 20.969 17.6682 21.0622C17.0142 21.1807 16.633 21.278 16.2277 21.4867C15.8158 21.6988 15.3695 22.0309 14.6014 22.6429C14.206 23.0321 13.5155 23.4449 12.7385 23.6905C11.9568 23.9377 11.0481 24.0281 10.2367 23.7165C9.08878 23.352 8.38095 22.9862 7.76134 22.6648L7.75337 22.6607C7.14056 22.3427 6.62431 22.0748 5.83604 21.8786C5.15036 21.7079 4.46663 21.8736 3.87674 22.1546C3.28763 22.4352 2.81549 22.8202 2.56989 23.0485L2.22852 22.6843C2.49723 22.4346 3.01114 22.0147 3.66088 21.7052C4.30983 21.3959 5.11772 21.1861 5.95728 21.3951C6.80306 21.6059 7.36342 21.8964 7.97429 22.2134L7.99236 22.2229C8.60575 22.5411 9.28502 22.8918 10.3958 23.2438L10.4032 23.2463L10.4106 23.2491C11.0786 23.5078 11.8641 23.4443 12.5871 23.2158C13.3103 22.987 13.9315 22.6055 14.2577 22.2806L14.2676 22.2707L14.2785 22.2622C15.0469 21.6498 15.5331 21.2837 15.998 21.0441C16.4715 20.8002 16.9132 20.6926 17.5788 20.572C18.1953 20.4603 18.7244 20.5461 19.2302 20.6786C19.4122 20.7265 19.5853 20.7781 19.7573 20.8294C20.0771 20.9248 20.3926 21.0189 20.7542 21.0843L20.6649 21.5745C20.2784 21.5047 19.9125 21.3959 19.5756 21.2958C19.4109 21.2469 19.2529 21.1998 19.1029 21.1606Z" fill="#02B6F2"/>
<path fill-rule="evenodd" clip-rule="evenodd" d="M19.1029 18.5317C18.6313 18.4082 18.1833 18.34 17.6682 18.4333C17.0142 18.5518 16.633 18.6491 16.2277 18.8578C15.8158 19.0699 15.3695 19.402 14.6014 20.014C14.206 20.4032 13.5155 20.816 12.7385 21.0616C11.9568 21.3088 11.0481 21.3991 10.2367 21.0875C9.08878 20.7231 8.38095 20.3573 7.76134 20.0358L7.75337 20.0318C7.14056 19.7138 6.62431 19.4459 5.83604 19.2497C5.15036 19.079 4.46663 19.2447 3.87674 19.5257C3.28763 19.8063 2.81549 20.1913 2.56989 20.4196L2.22852 20.0554C2.49723 19.8057 3.01114 19.3857 3.66088 19.0763C4.30983 18.767 5.11772 18.5572 5.95728 18.7662C6.80306 18.977 7.36322 19.2675 7.97429 19.5845L7.99236 19.594C8.60575 19.9122 9.28502 20.2629 10.3958 20.6149L10.4032 20.6174L10.4106 20.6201C11.0786 20.8789 11.8641 20.8154 12.5871 20.5869C13.3103 20.3581 13.9315 19.9766 14.2577 19.6517L14.2676 19.6418L14.2785 19.6333C15.0469 19.0209 15.5331 18.6547 15.998 18.4151C16.4715 18.1713 16.9132 18.0637 17.5788 17.9431C18.1953 17.8314 18.7244 17.9172 19.2302 18.0497C19.4122 18.0975 19.5853 18.1492 19.7573 18.2005C20.0771 18.2959 20.3926 18.39 20.7542 18.4554L20.6649 18.9456C20.2784 18.8758 19.9125 18.767 19.5756 18.6669C19.4109 18.618 19.2529 18.5709 19.1029 18.5317Z" fill="#02B6F2"/>
<path d="M31.079 11.219C31.079 11.219 31.1373 11.0642 31.2539 10.7545C31.3835 10.4319 31.5517 9.99971 31.759 9.45779C31.9663 8.91588 32.1995 8.31591 32.4585 7.65787C32.7305 6.98687 33.0025 6.30309 33.2746 5.60634C33.5466 4.89663 33.8056 4.21924 34.0517 3.57417C34.3107 2.9291 34.5375 2.36126 34.7318 1.87102C34.7837 1.76786 34.8936 1.65173 35.0621 1.52264C35.2434 1.39355 35.3794 1.3291 35.4701 1.3291C35.496 1.3291 35.509 1.33549 35.509 1.34846C35.522 1.34846 35.5414 1.35484 35.5673 1.36781L39.4338 11.4706C39.7188 12.219 39.8807 12.6319 39.9195 12.7093C39.9842 12.8511 40.1074 12.9738 40.2887 13.077C40.483 13.1802 40.6709 13.2576 40.8522 13.3093C41.0465 13.348 41.1695 13.3673 41.2213 13.3673C41.2732 13.4318 41.2926 13.5351 41.2796 13.677C41.2666 13.8061 41.2538 13.8835 41.2408 13.9092C40.8652 13.8835 40.5283 13.8641 40.2304 13.8512C39.9326 13.8254 39.5762 13.8125 39.1618 13.8125C38.7213 13.8125 38.3521 13.8254 38.0543 13.8512C37.7692 13.8641 37.4067 13.8835 36.9662 13.9092C36.9143 13.8575 36.8885 13.7674 36.8885 13.6383C36.9015 13.5092 36.9338 13.419 36.9856 13.3673C37.1022 13.3673 37.2835 13.348 37.5297 13.3093C37.7759 13.2576 37.9441 13.1931 38.0349 13.1157C38.0867 13.064 38.1126 12.9738 38.1126 12.8447C38.1126 12.7286 38.0673 12.5351 37.9766 12.2641C37.8988 11.9802 37.7953 11.6642 37.6657 11.3158C37.5361 10.9674 37.4067 10.632 37.2771 10.3094C37.1475 9.97397 37.0375 9.70301 36.9468 9.4965C36.8691 9.27722 36.8302 9.16748 36.8302 9.16748C36.8302 9.16748 36.8172 9.15452 36.7913 9.12878C36.7655 9.10304 36.7395 9.09007 36.7136 9.09007C36.5193 9.0771 36.2798 9.07071 35.9947 9.07071C35.7097 9.07071 35.4443 9.07071 35.1981 9.07071C35.1334 9.07071 35.0685 9.07071 35.0038 9.07071C34.9391 9.07071 34.8808 9.07071 34.8289 9.07071C34.4403 9.07071 34.11 9.0771 33.838 9.09007C33.566 9.09007 33.2163 9.10304 32.7888 9.12878C32.7758 9.12878 32.7564 9.14174 32.7305 9.16748C32.7047 9.18045 32.6917 9.18684 32.6917 9.18684C32.6917 9.18684 32.6398 9.31593 32.5362 9.57392C32.4455 9.83191 32.3289 10.1416 32.1865 10.5029C32.0569 10.8513 31.9403 11.1803 31.8367 11.49C31.7202 11.8126 31.6425 12.0836 31.6036 12.3028C31.5778 12.5221 31.5647 12.6963 31.5647 12.8254C31.5647 12.9673 31.6619 13.0834 31.8562 13.1738C32.0635 13.2512 32.2706 13.3029 32.4779 13.3286C32.6981 13.3543 32.8341 13.3673 32.886 13.3673C32.9118 13.3931 32.9312 13.477 32.9442 13.6189C32.9573 13.748 32.9507 13.8448 32.9248 13.9092C32.6786 13.8963 32.4649 13.8835 32.2836 13.8705C32.1152 13.8575 31.9403 13.8448 31.759 13.8318C31.5906 13.8188 31.364 13.8125 31.079 13.8125C30.794 13.8125 30.5544 13.8188 30.3601 13.8318C30.1658 13.8448 29.9715 13.8575 29.7772 13.8705C29.5829 13.8835 29.3368 13.8963 29.0389 13.9092C29.013 13.8835 29 13.8061 29 13.677C29 13.5351 29.013 13.4318 29.0389 13.3673C29.1554 13.3673 29.3497 13.3416 29.6218 13.2899C29.9067 13.2254 30.0945 13.1287 30.1852 12.9996C30.3795 12.7544 30.5414 12.4834 30.671 12.1867C30.8134 11.877 30.9494 11.5544 31.079 11.219ZM34.7901 3.61288L33.0608 8.21914C33.0608 8.21914 33.0608 8.23211 33.0608 8.25785C33.0738 8.28359 33.0867 8.29655 33.0997 8.29655C33.3459 8.30952 33.6373 8.3223 33.974 8.33526C34.3238 8.33526 34.6022 8.33526 34.8095 8.33526C35.1074 8.33526 35.373 8.32888 35.6061 8.31591C35.8523 8.30294 36.1177 8.29017 36.4027 8.2772C36.4286 8.2772 36.4416 8.26423 36.4416 8.23849C36.4546 8.19978 36.461 8.18043 36.461 8.18043L34.7901 3.61288Z" fill="#071A30"/>
<path d="M50.3498 1.25195C51.1917 1.25195 51.9819 1.40678 52.7202 1.71645C53.4716 2.02611 54.1322 2.47126 54.702 3.05188C55.2719 3.61953 55.7188 4.29692 56.0427 5.08405C56.3794 5.85821 56.5479 6.71617 56.5479 7.65813C56.5479 8.62583 56.3536 9.5225 55.965 10.3483C55.5764 11.1742 55.0454 11.8837 54.3717 12.4773C53.7111 13.0709 52.9598 13.503 52.1179 13.774C52.5712 13.9933 52.9534 14.1998 53.2642 14.3933C53.5751 14.5869 53.8666 14.7547 54.1386 14.8965C54.4106 15.0514 54.7085 15.1675 55.0323 15.2449C55.3691 15.3353 55.7837 15.3804 56.2759 15.3804C56.6514 15.3804 56.9495 15.361 57.1696 15.3223C57.4028 15.2966 57.5518 15.2772 57.6165 15.2643C57.6812 15.2643 57.7461 15.2772 57.8108 15.303C57.8885 15.3287 57.9404 15.361 57.9662 15.3997C57.9793 15.4127 57.9857 15.4321 57.9857 15.4578C57.4675 15.7288 56.9559 15.9546 56.4507 16.1352C55.9586 16.3287 55.4209 16.4255 54.838 16.4255C54.3329 16.4255 53.8471 16.3223 53.3808 16.1158C52.9275 15.9093 52.4676 15.6577 52.0013 15.361C51.535 15.0771 51.0428 14.7934 50.5246 14.5095C50.0195 14.2255 49.456 14.0062 48.8342 13.8514C47.9535 13.6321 47.1633 13.2385 46.4638 12.6708C45.7643 12.0902 45.2139 11.3741 44.8123 10.5225C44.4107 9.65798 44.21 8.70325 44.21 7.65813C44.21 6.76785 44.3718 5.93563 44.6957 5.16147C45.0196 4.38731 45.4599 3.70992 46.0169 3.12929C46.5868 2.53571 47.241 2.07779 47.9793 1.75516C48.7307 1.41975 49.5207 1.25195 50.3498 1.25195ZM50.0778 1.89064C49.3653 1.89064 48.7565 2.05186 48.2514 2.37449C47.7462 2.68415 47.3317 3.09697 47.0078 3.61315C46.697 4.12932 46.4638 4.70336 46.3084 5.33565C46.166 5.96795 46.0946 6.60005 46.0946 7.23234C46.0946 7.96779 46.1918 8.70325 46.3861 9.4387C46.5934 10.1612 46.8913 10.8258 47.2799 11.4322C47.6685 12.0258 48.1412 12.503 48.6982 12.8644C49.2681 13.2257 49.9223 13.4063 50.6606 13.4063C51.3731 13.4063 51.9819 13.2514 52.487 12.9418C52.9922 12.6191 53.4067 12.1934 53.7306 11.6644C54.0544 11.1355 54.2876 10.5549 54.43 9.92255C54.5855 9.27749 54.6632 8.6388 54.6632 8.0065C54.6632 7.27105 54.5596 6.54199 54.3523 5.8195C54.158 5.09702 53.8601 4.43898 53.4585 3.84539C53.0699 3.2518 52.5906 2.78092 52.0207 2.43255C51.4637 2.07121 50.8161 1.89064 50.0778 1.89064Z" fill="#071A30"/>
<path d="M62.6232 1.42587C62.9988 1.42587 63.3615 1.41949 63.7112 1.40652C64.074 1.38078 64.4496 1.36142 64.8382 1.34846C64.89 1.40013 64.9095 1.49032 64.8965 1.61941C64.8965 1.7485 64.877 1.8387 64.8382 1.89037C64.7605 1.89037 64.618 1.90334 64.4107 1.92908C64.2164 1.94204 64.0285 1.96778 63.8473 2.00649C63.666 2.0452 63.5622 2.10327 63.5364 2.18068C63.4845 2.33552 63.4522 2.54202 63.4392 2.80001C63.4392 3.04522 63.4392 3.3096 63.4392 3.59352V8.25784C63.4392 9.04497 63.5169 9.72875 63.6724 10.3094C63.8408 10.89 64.074 11.3675 64.3719 11.7416C64.9678 12.4641 65.8355 12.8254 66.9754 12.8254C67.6361 12.8254 68.2384 12.7029 68.7824 12.4577C69.3265 12.2124 69.7669 11.7932 70.1036 11.1997C70.4534 10.5933 70.6347 9.74811 70.6477 8.66428V3.55481C70.6477 3.21941 70.6413 2.95484 70.6282 2.7613C70.6152 2.56776 70.5569 2.39358 70.4534 2.23874C70.4145 2.17429 70.3043 2.11623 70.1231 2.06456C69.9418 2.00011 69.7475 1.95482 69.5402 1.92908C69.3459 1.89037 69.1969 1.87102 69.0933 1.87102C69.0414 1.80657 69.0156 1.71619 69.0156 1.60006C69.0286 1.47097 69.0414 1.38078 69.0544 1.3291C69.43 1.34207 69.7669 1.36143 70.0648 1.38717C70.3757 1.40013 70.7384 1.40652 71.1528 1.40652C71.4507 1.40652 71.6905 1.40652 71.8717 1.40652C72.066 1.39356 72.2603 1.38078 72.4546 1.36781C72.662 1.35484 72.9079 1.34207 73.193 1.3291C73.2188 1.38078 73.2382 1.4582 73.2513 1.56135C73.2643 1.66451 73.2448 1.76786 73.193 1.87102C73.1153 1.87102 72.9662 1.88398 72.7461 1.90972C72.5259 1.93546 72.3122 1.98075 72.1049 2.0452C71.8976 2.09688 71.7682 2.16133 71.7163 2.23874C71.6256 2.38061 71.5673 2.54202 71.5414 2.72259C71.5284 2.90317 71.522 3.17413 71.522 3.53546V8.62557C71.522 9.87719 71.3147 10.8964 70.9003 11.6835C70.4858 12.4577 69.9029 13.0253 69.1516 13.3867C68.4132 13.748 67.5519 13.9286 66.5674 13.9286C65.8938 13.9286 65.2656 13.8188 64.6827 13.5996C64.0998 13.3803 63.6011 13.0706 63.1866 12.6706C62.7462 12.2577 62.403 11.748 62.1569 11.1416C61.9107 10.5352 61.7877 9.85784 61.7877 9.10942V3.59352C61.7877 3.3096 61.7813 3.04522 61.7683 2.80001C61.7683 2.54202 61.7424 2.33552 61.6906 2.18068C61.6775 2.10327 61.574 2.0452 61.3797 2.00649C61.1984 1.96778 61.0041 1.94204 60.7968 1.92908C60.6025 1.90334 60.4665 1.89037 60.3888 1.89037C60.3499 1.8387 60.3241 1.7485 60.311 1.61941C60.311 1.49032 60.3369 1.40013 60.3888 1.34846C60.7773 1.36142 61.1529 1.38078 61.5157 1.40652C61.8913 1.41949 62.2604 1.42587 62.6232 1.42587Z" fill="#071A30"/>
<path d="M77.1742 11.219C77.1742 11.219 77.2325 11.0642 77.3491 10.7545C77.4787 10.4319 77.6471 9.99971 77.8542 9.45779C78.0616 8.91588 78.2947 8.31591 78.5537 7.65787C78.8257 6.98687 79.0978 6.30309 79.3698 5.60634C79.6418 4.89663 79.901 4.21924 80.147 3.57417C80.4062 2.9291 80.6327 2.36126 80.827 1.87102C80.8789 1.76786 80.989 1.65173 81.1573 1.52264C81.3386 1.39355 81.4748 1.3291 81.5653 1.3291C81.5914 1.3291 81.6042 1.33549 81.6042 1.34846C81.6172 1.34846 81.6366 1.35484 81.6625 1.36781L85.529 11.4706C85.8141 12.219 85.9759 12.6319 86.0148 12.7093C86.0797 12.8511 86.2027 12.9738 86.3839 13.077C86.5782 13.1802 86.7661 13.2576 86.9474 13.3093C87.1417 13.348 87.2649 13.3673 87.3166 13.3673C87.3684 13.4318 87.3879 13.5351 87.3749 13.677C87.3618 13.8061 87.349 13.8835 87.336 13.9092C86.9604 13.8835 86.6237 13.8641 86.3256 13.8512C86.0278 13.8254 85.6716 13.8125 85.257 13.8125C84.8167 13.8125 84.4476 13.8254 84.1495 13.8512C83.8647 13.8641 83.5019 13.8835 83.0614 13.9092C83.0098 13.8575 82.9837 13.7674 82.9837 13.6383C82.9967 13.5092 83.0292 13.419 83.0809 13.3673C83.1974 13.3673 83.3789 13.348 83.6249 13.3093C83.8711 13.2576 84.0395 13.1931 84.1301 13.1157C84.182 13.064 84.2078 12.9738 84.2078 12.8447C84.2078 12.7286 84.1625 12.5351 84.0718 12.2641C83.9941 11.9802 83.8905 11.6642 83.7609 11.3158C83.6315 10.9674 83.5019 10.632 83.3723 10.3094C83.2429 9.97397 83.1327 9.70301 83.042 9.4965C82.9643 9.27722 82.9254 9.16748 82.9254 9.16748C82.9254 9.16748 82.9126 9.15452 82.8866 9.12878C82.8607 9.10304 82.8349 9.09007 82.8088 9.09007C82.6145 9.0771 82.375 9.07071 82.0899 9.07071C81.8051 9.07071 81.5395 9.07071 81.2933 9.07071C81.2286 9.07071 81.1639 9.07071 81.099 9.07071C81.0343 9.07071 80.976 9.07071 80.9242 9.07071C80.5356 9.07071 80.2053 9.0771 79.9332 9.09007C79.6612 9.09007 79.3115 9.10304 78.884 9.12878C78.8712 9.12878 78.8518 9.14174 78.8257 9.16748C78.7999 9.18045 78.7869 9.18684 78.7869 9.18684C78.7869 9.18684 78.7352 9.31593 78.6314 9.57392C78.5409 9.83191 78.4243 10.1416 78.2817 10.5029C78.1523 10.8513 78.0357 11.1803 77.932 11.49C77.8154 11.8126 77.7377 12.0836 77.6988 12.3028C77.673 12.5221 77.6599 12.6963 77.6599 12.8254C77.6599 12.9673 77.7571 13.0834 77.9514 13.1738C78.1587 13.2512 78.366 13.3029 78.5731 13.3286C78.7935 13.3543 78.9295 13.3673 78.9812 13.3673C79.0072 13.3931 79.0266 13.477 79.0395 13.6189C79.0525 13.748 79.0461 13.8448 79.02 13.9092C78.7741 13.8963 78.5603 13.8835 78.3789 13.8705C78.2106 13.8575 78.0357 13.8448 77.8542 13.8318C77.686 13.8188 77.4592 13.8125 77.1742 13.8125C76.8894 13.8125 76.6496 13.8188 76.4553 13.8318C76.261 13.8448 76.0667 13.8575 75.8724 13.8705C75.6781 13.8835 75.4321 13.8963 75.1341 13.9092C75.1082 13.8835 75.0952 13.8061 75.0952 13.677C75.0952 13.5351 75.1082 13.4318 75.1341 13.3673C75.2506 13.3673 75.4449 13.3416 75.717 13.2899C76.002 13.2254 76.1899 13.1287 76.2804 12.9996C76.4747 12.7544 76.6368 12.4834 76.7662 12.1867C76.9088 11.877 77.0448 11.5544 77.1742 11.219ZM80.8853 3.61288L79.156 8.21914C79.156 8.21914 79.156 8.23211 79.156 8.25785C79.1691 8.28359 79.1821 8.29655 79.1949 8.29655C79.4411 8.30952 79.7325 8.3223 80.0692 8.33526C80.419 8.33526 80.6976 8.33526 80.9047 8.33526C81.2028 8.33526 81.4682 8.32888 81.7014 8.31591C81.9475 8.30294 82.2131 8.29017 82.498 8.2772C82.524 8.2772 82.5368 8.26423 82.5368 8.23849C82.5498 8.19978 82.5563 8.18043 82.5563 8.18043L80.8853 3.61288Z" fill="#071A30"/>
<path d="M102.944 1.27051C103.346 1.27051 103.676 1.29625 103.935 1.34792C104.207 1.38663 104.479 1.44469 104.751 1.52211C105.036 1.59952 105.386 1.68991 105.801 1.79307C105.878 2.2833 105.937 2.79309 105.975 3.32203C106.027 3.8382 106.06 4.22528 106.073 4.48327C106.086 4.54772 106.04 4.59939 105.937 4.6381C105.833 4.66384 105.749 4.67681 105.684 4.67681C105.593 4.67681 105.522 4.65107 105.47 4.5994C105.444 4.36715 105.367 4.09619 105.237 3.78653C105.107 3.47686 104.926 3.18017 104.693 2.89624C104.473 2.61232 104.201 2.38007 103.877 2.1995C103.566 2.00596 103.21 1.90919 102.808 1.90919C102.29 1.90919 101.882 2.01893 101.584 2.23821C101.286 2.45749 101.073 2.72845 100.943 3.05108C100.813 3.37371 100.749 3.68976 100.749 3.99942C100.749 4.50263 100.878 4.92203 101.137 5.25743C101.409 5.59284 101.746 5.88973 102.148 6.14772C102.562 6.40571 102.977 6.67027 103.391 6.94123C103.702 7.13477 104.045 7.34766 104.421 7.57991C104.797 7.81216 105.159 8.07015 105.509 8.35407C105.859 8.638 106.144 8.96702 106.364 9.34113C106.584 9.70247 106.694 10.1153 106.694 10.5798C106.694 11.2636 106.5 11.8701 106.111 12.3991C105.736 12.9152 105.243 13.3217 104.635 13.6184C104.039 13.9023 103.404 14.0441 102.731 14.0441C102.096 14.0441 101.481 13.9731 100.885 13.8313C100.302 13.6894 99.7773 13.5733 99.311 13.4829C99.2332 13.1088 99.1619 12.7087 99.0972 12.2829C99.0454 11.8571 99.0001 11.483 98.9612 11.1604C98.9354 10.8378 98.9224 10.6378 98.9224 10.5604C98.9871 10.496 99.0584 10.4443 99.1361 10.4056C99.2268 10.3539 99.3174 10.3282 99.4081 10.3282C99.5247 10.3282 99.596 10.3862 99.6218 10.5024C99.6607 10.6829 99.7384 10.9345 99.855 11.2572C99.9846 11.5668 100.166 11.8895 100.399 12.2249C100.645 12.5603 100.956 12.8442 101.332 13.0764C101.72 13.2957 102.2 13.4055 102.769 13.4055C103.378 13.4055 103.909 13.2055 104.363 12.8055C104.816 12.3927 105.043 11.8184 105.043 11.083C105.043 10.554 104.92 10.141 104.674 9.84433C104.44 9.54763 104.13 9.28945 103.741 9.07017C103.365 8.85089 102.957 8.61864 102.517 8.37343C102.038 8.0895 101.539 7.77984 101.021 7.44443C100.516 7.09606 100.088 6.68963 99.7384 6.22513C99.3887 5.76064 99.2138 5.21234 99.2138 4.58004C99.2138 3.90904 99.3887 3.32842 99.7384 2.83818C100.101 2.33498 100.567 1.9479 101.137 1.67694C101.707 1.40599 102.31 1.27051 102.944 1.27051Z" fill="#071A30"/>
<path d="M113.13 1.42605C113.454 1.42605 113.739 1.41967 113.985 1.4067C114.231 1.38096 114.458 1.3616 114.665 1.34863C114.742 1.59385 114.885 1.97435 115.092 2.49052C115.313 3.00669 115.565 3.61944 115.85 4.32915C116.148 5.0259 116.465 5.76774 116.802 6.55487C117.139 7.34199 117.469 8.12893 117.793 8.91606C118.117 9.69022 118.415 10.4127 118.687 11.0837C118.7 11.1095 118.726 11.1224 118.764 11.1224C118.803 11.1224 118.829 11.0967 118.842 11.045C119.218 10.0903 119.555 9.23211 119.852 8.47092C120.151 7.69676 120.448 6.92898 120.746 6.16779C121.057 5.39362 121.394 4.54205 121.757 3.61306C121.873 3.31636 121.996 2.99373 122.126 2.64536C122.255 2.29698 122.366 1.9937 122.456 1.73571C122.547 1.47772 122.592 1.34863 122.592 1.34863C123.201 1.38734 123.7 1.4067 124.088 1.4067C124.425 1.4067 124.801 1.40031 125.215 1.38734C125.643 1.37438 125.973 1.3616 126.206 1.34863C126.219 1.37437 126.232 1.47114 126.245 1.63894C126.258 1.80674 126.264 1.89055 126.264 1.89055C126.174 1.89055 126.025 1.90351 125.817 1.92925C125.623 1.95499 125.435 1.9937 125.254 2.04538C125.073 2.09705 124.962 2.15512 124.924 2.21956C124.885 2.30995 124.859 2.42608 124.846 2.56794C124.833 2.70981 124.826 2.8389 124.826 2.95502C124.839 3.27765 124.853 3.76789 124.865 4.42592C124.878 5.08396 124.891 5.8258 124.904 6.65164C124.93 7.46451 124.95 8.27099 124.962 9.07089C124.989 9.87079 125.008 10.5805 125.021 11.1998C125.034 11.5612 125.053 11.903 125.079 12.2256C125.105 12.5482 125.163 12.8192 125.254 13.0385C125.293 13.1288 125.409 13.1997 125.604 13.2514C125.798 13.2901 125.992 13.3224 126.187 13.3481C126.394 13.3611 126.523 13.3675 126.575 13.3675C126.627 13.4579 126.646 13.5674 126.633 13.6965C126.633 13.8126 126.627 13.8837 126.614 13.9094C126.238 13.8837 125.869 13.8643 125.507 13.8513C125.157 13.8256 124.775 13.8126 124.36 13.8126C123.92 13.8126 123.538 13.8256 123.214 13.8513C122.89 13.8643 122.508 13.8837 122.067 13.9094C122.055 13.8837 122.042 13.8062 122.029 13.6772C122.016 13.5481 122.029 13.4449 122.067 13.3675C122.145 13.3675 122.268 13.3611 122.437 13.3481C122.605 13.3224 122.774 13.2965 122.942 13.2707C123.11 13.232 123.233 13.1933 123.311 13.1546C123.376 13.1159 123.421 13.0061 123.447 12.8256C123.473 12.645 123.486 12.4902 123.486 12.3611C123.486 12.2192 123.479 12.0384 123.466 11.8192C123.454 11.5869 123.447 11.3998 123.447 11.2579C123.421 10.3419 123.395 9.46436 123.369 8.62575C123.343 7.77417 123.318 6.90963 123.292 6.03231C123.266 5.14203 123.233 4.18729 123.194 3.16791C123.194 3.1292 123.182 3.05818 123.156 2.95502C123.13 2.85186 123.084 2.80019 123.02 2.80019C122.994 2.80019 122.961 2.84528 122.922 2.93567C122.534 3.90337 122.171 4.80004 121.834 5.62587C121.511 6.45171 121.193 7.25161 120.882 8.02577C120.571 8.78697 120.254 9.56771 119.93 10.3676C119.619 11.1547 119.283 12.0063 118.92 12.9223C118.894 12.974 118.836 13.0772 118.745 13.232C118.654 13.3868 118.557 13.5353 118.454 13.6772C118.363 13.8062 118.279 13.8771 118.201 13.89C118.175 13.903 118.13 13.8964 118.065 13.8707C118.052 13.8577 118.039 13.8513 118.026 13.8513L113.402 2.81954C113.389 3.64538 113.37 4.49696 113.344 5.37427C113.318 6.25159 113.292 7.10317 113.266 7.929C113.253 8.75484 113.234 9.50307 113.207 10.1741C113.195 10.8321 113.182 11.3676 113.169 11.7805C113.156 12.1805 113.149 12.3998 113.149 12.4385C113.149 12.5289 113.156 12.632 113.169 12.7482C113.182 12.8513 113.201 12.9417 113.227 13.0191C113.266 13.1095 113.395 13.1803 113.616 13.232C113.849 13.2837 114.082 13.3224 114.315 13.3481C114.548 13.3611 114.691 13.3675 114.742 13.3675C114.794 13.4192 114.814 13.5159 114.801 13.6578C114.788 13.7997 114.775 13.8837 114.762 13.9094C114.386 13.8837 114.062 13.8643 113.79 13.8513C113.518 13.8256 113.175 13.8126 112.761 13.8126C112.32 13.8126 111.951 13.8256 111.653 13.8513C111.355 13.8643 110.986 13.8837 110.546 13.9094C110.533 13.8837 110.52 13.8062 110.507 13.6772C110.494 13.5481 110.507 13.4449 110.546 13.3675C110.623 13.3675 110.772 13.3545 110.992 13.3288C111.226 13.303 111.452 13.2643 111.673 13.2127C111.893 13.161 112.029 13.0965 112.081 13.0191C112.171 12.89 112.23 12.7545 112.255 12.6127C112.281 12.4578 112.301 12.2773 112.314 12.0708C112.353 10.9353 112.385 9.84505 112.411 8.79993C112.45 7.75482 112.476 6.81944 112.489 5.9936C112.515 5.15499 112.534 4.4776 112.547 3.96143C112.56 3.43248 112.566 3.12282 112.566 3.03244C112.566 2.89057 112.56 2.75509 112.547 2.626C112.547 2.49691 112.527 2.38079 112.489 2.27763C112.463 2.20021 112.353 2.13576 112.158 2.08409C111.977 2.01964 111.783 1.97435 111.575 1.94861C111.381 1.9099 111.245 1.89055 111.167 1.89055C111.155 1.89055 111.148 1.80674 111.148 1.63894C111.148 1.45837 111.155 1.3616 111.167 1.34863C111.465 1.3616 111.705 1.37438 111.886 1.38734C112.068 1.40031 112.249 1.41308 112.43 1.42605C112.612 1.42605 112.845 1.42605 113.13 1.42605Z" fill="#071A30"/>
<path d="M131.564 11.219C131.564 11.219 131.623 11.0642 131.739 10.7545C131.869 10.4319 132.037 9.99971 132.244 9.45779C132.452 8.91588 132.685 8.31591 132.944 7.65787C133.216 6.98687 133.488 6.30309 133.76 5.60634C134.032 4.89663 134.291 4.21924 134.537 3.57417C134.796 2.9291 135.023 2.36126 135.217 1.87102C135.269 1.76786 135.379 1.65173 135.547 1.52264C135.729 1.39355 135.865 1.3291 135.955 1.3291C135.981 1.3291 135.994 1.33549 135.994 1.34846C136.007 1.34846 136.027 1.35484 136.053 1.36781L139.919 11.4706C140.204 12.219 140.366 12.6319 140.405 12.7093C140.47 12.8511 140.593 12.9738 140.774 13.077C140.968 13.1802 141.156 13.2576 141.338 13.3093C141.532 13.348 141.655 13.3673 141.707 13.3673C141.759 13.4318 141.778 13.5351 141.765 13.677C141.752 13.8061 141.739 13.8835 141.726 13.9092C141.351 13.8835 141.014 13.8641 140.716 13.8512C140.418 13.8254 140.062 13.8125 139.647 13.8125C139.207 13.8125 138.837 13.8254 138.54 13.8512C138.255 13.8641 137.892 13.8835 137.452 13.9092C137.4 13.8575 137.374 13.7674 137.374 13.6383C137.387 13.5092 137.419 13.419 137.471 13.3673C137.588 13.3673 137.769 13.348 138.015 13.3093C138.261 13.2576 138.429 13.1931 138.52 13.1157C138.572 13.064 138.598 12.9738 138.598 12.8447C138.598 12.7286 138.553 12.5351 138.462 12.2641C138.384 11.9802 138.281 11.6642 138.151 11.3158C138.021 10.9674 137.892 10.632 137.762 10.3094C137.633 9.97397 137.523 9.70301 137.432 9.4965C137.354 9.27722 137.316 9.16748 137.316 9.16748C137.316 9.16748 137.303 9.15452 137.277 9.12878C137.251 9.10304 137.225 9.09007 137.199 9.09007C137.005 9.0771 136.765 9.07071 136.48 9.07071C136.195 9.07071 135.93 9.07071 135.683 9.07071C135.619 9.07071 135.554 9.07071 135.489 9.07071C135.424 9.07071 135.366 9.07071 135.314 9.07071C134.926 9.07071 134.595 9.0771 134.323 9.09007C134.051 9.09007 133.702 9.10304 133.274 9.12878C133.261 9.12878 133.242 9.14174 133.216 9.16748C133.19 9.18045 133.177 9.18684 133.177 9.18684C133.177 9.18684 133.125 9.31593 133.022 9.57392C132.931 9.83191 132.814 10.1416 132.672 10.5029C132.542 10.8513 132.426 11.1803 132.322 11.49C132.206 11.8126 132.128 12.0836 132.089 12.3028C132.063 12.5221 132.05 12.6963 132.05 12.8254C132.05 12.9673 132.147 13.0834 132.342 13.1738C132.549 13.2512 132.756 13.3029 132.963 13.3286C133.183 13.3543 133.319 13.3673 133.371 13.3673C133.397 13.3931 133.417 13.477 133.43 13.6189C133.443 13.748 133.436 13.8448 133.41 13.9092C133.164 13.8963 132.95 13.8835 132.769 13.8705C132.601 13.8575 132.426 13.8448 132.244 13.8318C132.076 13.8188 131.849 13.8125 131.564 13.8125C131.279 13.8125 131.04 13.8188 130.845 13.8318C130.651 13.8448 130.457 13.8575 130.263 13.8705C130.068 13.8835 129.822 13.8963 129.524 13.9092C129.498 13.8835 129.485 13.8061 129.485 13.677C129.485 13.5351 129.498 13.4318 129.524 13.3673C129.641 13.3673 129.835 13.3416 130.107 13.2899C130.392 13.2254 130.58 13.1287 130.671 12.9996C130.865 12.7544 131.027 12.4834 131.156 12.1867C131.299 11.877 131.435 11.5544 131.564 11.219ZM135.275 3.61288L133.546 8.21914C133.546 8.21914 133.546 8.23211 133.546 8.25785C133.559 8.28359 133.572 8.29655 133.585 8.29655C133.831 8.30952 134.123 8.3223 134.459 8.33526C134.809 8.33526 135.088 8.33526 135.295 8.33526C135.593 8.33526 135.858 8.32888 136.091 8.31591C136.338 8.30294 136.603 8.29017 136.888 8.2772C136.914 8.2772 136.927 8.26423 136.927 8.23849C136.94 8.19978 136.946 8.18043 136.946 8.18043L135.275 3.61288Z" fill="#071A30"/>
<path d="M149.97 1.38734C150.397 1.38734 150.838 1.45837 151.291 1.60024C151.745 1.7421 152.159 1.94861 152.535 2.21956C152.923 2.49052 153.234 2.83251 153.467 3.24533C153.7 3.64538 153.817 4.11626 153.817 4.65817C153.817 5.1097 153.688 5.54846 153.428 5.97425C153.182 6.40003 152.859 6.77415 152.457 7.09678C152.068 7.41941 151.66 7.65166 151.233 7.79353C151.57 8.34841 151.893 8.858 152.204 9.3225C152.515 9.78699 152.839 10.2515 153.176 10.716C153.513 11.1675 153.888 11.6707 154.303 12.2256C154.575 12.5869 154.866 12.8579 155.177 13.0385C155.501 13.219 155.922 13.3288 156.44 13.3675C156.492 13.4192 156.505 13.5159 156.479 13.6578C156.453 13.7997 156.434 13.8837 156.421 13.9094C155.786 13.9094 155.255 13.89 154.827 13.8513C154.413 13.7997 154.108 13.7416 153.914 13.6772C153.785 13.6255 153.603 13.5481 153.37 13.4449C153.137 13.3288 152.91 13.1288 152.69 12.8449C152.612 12.7418 152.47 12.5417 152.263 12.245C152.056 11.9483 151.809 11.5869 151.524 11.1611C151.239 10.7353 150.935 10.2838 150.611 9.80635C150.287 9.31611 149.977 8.83865 149.678 8.37415C149.575 8.21932 149.381 8.1419 149.096 8.1419H148.105V11.6643C148.105 11.703 148.105 11.7417 148.105 11.7805C148.105 11.8192 148.105 11.8579 148.105 11.8966C148.105 12.1418 148.105 12.3675 148.105 12.574C148.118 12.7675 148.144 12.9287 148.182 13.0578C148.208 13.1223 148.312 13.1803 148.493 13.232C148.675 13.2837 148.869 13.3224 149.076 13.3481C149.283 13.3611 149.426 13.3675 149.504 13.3675C149.542 13.4192 149.562 13.5094 149.562 13.6384C149.575 13.7675 149.555 13.8577 149.504 13.9094C149.115 13.8837 148.739 13.8643 148.377 13.8513C148.027 13.8256 147.664 13.8126 147.289 13.8126C146.926 13.8126 146.557 13.8256 146.181 13.8513C145.806 13.8643 145.423 13.8837 145.035 13.9094C144.983 13.8577 144.957 13.7675 144.957 13.6384C144.97 13.5094 144.996 13.4192 145.035 13.3675C145.112 13.3675 145.255 13.3611 145.462 13.3481C145.67 13.3224 145.864 13.2837 146.045 13.232C146.239 13.1803 146.343 13.1223 146.356 13.0578C146.408 12.903 146.434 12.7031 146.434 12.4578C146.447 12.2126 146.453 11.9483 146.453 11.6643L146.434 3.5937C146.434 3.30978 146.427 3.0454 146.414 2.80019C146.414 2.5422 146.388 2.33569 146.337 2.18086C146.324 2.10344 146.22 2.04538 146.026 2.00667C145.844 1.96796 145.65 1.94222 145.443 1.92925C145.248 1.90351 145.112 1.89055 145.035 1.89055C144.996 1.83887 144.97 1.74868 144.957 1.61959C144.957 1.4905 144.983 1.40031 145.035 1.34863C145.423 1.3616 145.799 1.38096 146.162 1.4067C146.537 1.41967 146.907 1.42605 147.269 1.42605C147.645 1.42605 148.046 1.41967 148.474 1.4067C148.914 1.39373 149.413 1.38734 149.97 1.38734ZM152.049 4.83236C152.049 4.00652 151.822 3.32913 151.369 2.80019C150.929 2.27124 150.184 2.00667 149.134 2.00667C149.018 2.00667 148.837 2.01306 148.59 2.02602C148.357 2.03899 148.221 2.09048 148.182 2.18086C148.131 2.29698 148.098 2.49691 148.085 2.78083C148.085 3.05179 148.085 3.32913 148.085 3.61306L148.105 7.56128H149.115C149.607 7.56128 150.074 7.45154 150.514 7.23226C150.967 7.00001 151.337 6.68396 151.621 6.28391C151.906 5.87109 152.049 5.38724 152.049 4.83236Z" fill="#071A30"/>
<path d="M167.69 1.34837C167.845 1.34837 168.046 1.31605 168.292 1.2516C168.538 1.18715 168.719 1.12909 168.836 1.07741C168.94 1.02574 169.011 1 169.05 1C169.089 1 169.134 1.01296 169.186 1.0387C169.25 1.61933 169.322 2.18059 169.399 2.72251C169.49 3.26442 169.587 3.78698 169.691 4.29018C169.665 4.31593 169.62 4.34825 169.555 4.38696C169.49 4.42566 169.412 4.43863 169.322 4.42566C169.179 4.42566 169.089 4.39334 169.05 4.32889C168.92 3.67085 168.706 3.12255 168.409 2.6838C168.111 2.24504 167.722 2.02576 167.243 2.02576H164.833V11.6641C164.833 11.948 164.833 12.2124 164.833 12.4576C164.846 12.7028 164.879 12.9027 164.931 13.0576C164.956 13.122 165.06 13.1801 165.242 13.2317C165.423 13.2834 165.611 13.3221 165.805 13.3479C166.012 13.3608 166.155 13.3672 166.232 13.3672C166.271 13.4189 166.291 13.5091 166.291 13.6382C166.304 13.7673 166.284 13.8575 166.232 13.9091C165.844 13.8834 165.468 13.864 165.105 13.8511C164.756 13.8253 164.393 13.8124 164.017 13.8124C163.655 13.8124 163.286 13.8253 162.91 13.8511C162.534 13.864 162.152 13.8834 161.764 13.9091C161.712 13.8575 161.686 13.7673 161.686 13.6382C161.699 13.5091 161.725 13.4189 161.764 13.3672C161.841 13.3672 161.984 13.3608 162.191 13.3479C162.398 13.3221 162.592 13.2834 162.774 13.2317C162.968 13.1801 163.072 13.122 163.085 13.0576C163.136 12.9027 163.163 12.7028 163.163 12.4576C163.175 12.2124 163.182 11.948 163.182 11.6641V2.02576H160.734C160.254 2.02576 159.866 2.24504 159.568 2.6838C159.27 3.12255 159.05 3.67085 158.907 4.32889C158.869 4.39334 158.778 4.42566 158.635 4.42566C158.545 4.43863 158.467 4.42566 158.402 4.38696C158.35 4.34825 158.311 4.31593 158.286 4.29018C158.389 3.78698 158.48 3.26442 158.558 2.72251C158.635 2.18059 158.707 1.61933 158.771 1.0387C158.836 1.01296 158.914 1.01296 159.005 1.0387C159.095 1.05167 159.166 1.07103 159.218 1.09677C159.335 1.14845 159.497 1.20651 159.704 1.27096C159.924 1.32263 160.112 1.34837 160.267 1.34837H167.69Z" fill="#071A30"/>
<path d="M80.6172 22.2126C80.6172 21.9649 80.6599 21.7191 80.7454 21.4752C80.8348 21.2275 80.963 21.0069 81.1301 20.8133C81.2972 20.6198 81.5032 20.463 81.748 20.343C81.9928 20.2192 82.2707 20.1572 82.5815 20.1572C82.9507 20.1572 83.2655 20.2405 83.5258 20.4069C83.7901 20.5733 83.9844 20.7901 84.1087 21.0572L83.7881 21.2546C83.7221 21.1191 83.6405 21.0049 83.5433 20.912C83.4501 20.8191 83.349 20.7437 83.2402 20.6856C83.1314 20.6275 83.0187 20.5869 82.9021 20.5637C82.7855 20.5366 82.6709 20.523 82.5582 20.523C82.3095 20.523 82.09 20.5733 81.8995 20.674C81.7091 20.7746 81.5479 20.9062 81.4157 21.0688C81.2875 21.2314 81.1904 21.4152 81.1243 21.6204C81.0582 21.8217 81.0252 22.0268 81.0252 22.2359C81.0252 22.4642 81.0641 22.6829 81.1418 22.892C81.2234 23.101 81.3322 23.2868 81.4682 23.4494C81.6081 23.6081 81.7713 23.7358 81.9578 23.8326C82.1483 23.9255 82.3542 23.9719 82.5757 23.9719C82.6923 23.9719 82.8108 23.9584 82.9313 23.9313C83.0556 23.9003 83.1741 23.8539 83.2868 23.7919C83.4034 23.7261 83.5103 23.6468 83.6074 23.5539C83.7046 23.4571 83.7862 23.341 83.8522 23.2055L84.1903 23.3797C84.1243 23.5345 84.031 23.6719 83.9105 23.7919C83.7901 23.908 83.656 24.0068 83.5083 24.088C83.3607 24.1693 83.2033 24.2313 83.0362 24.2738C82.873 24.3164 82.7117 24.3377 82.5524 24.3377C82.2687 24.3377 82.0084 24.2758 81.7713 24.1519C81.5343 24.028 81.3303 23.8674 81.1593 23.67C80.9883 23.4687 80.8542 23.2423 80.7571 22.9907C80.6638 22.7352 80.6172 22.4758 80.6172 22.2126Z" fill="#071A30"/>
<path d="M90.7277 23.9431V24.3031H87.9473V20.1807H90.6752V20.5406H88.3553V22.027H90.3779V22.3696H88.3553V23.9431H90.7277Z" fill="#071A30"/>
<path d="M94.9676 20.9355V24.3031H94.5596V20.1807H94.8743L97.6139 23.6121V20.1865H98.022V24.3031H97.6664L94.9676 20.9355Z" fill="#071A30"/>
<path d="M105.06 20.5406H103.585V24.3031H103.177V20.5406H101.702V20.1807H105.06V20.5406Z" fill="#071A30"/>
<path d="M108.74 24.3031V20.1807H110.488C110.667 20.1807 110.83 20.2194 110.978 20.2968C111.13 20.3703 111.26 20.469 111.369 20.5929C111.477 20.7129 111.561 20.8503 111.619 21.0051C111.681 21.16 111.712 21.3167 111.712 21.4754C111.712 21.6264 111.689 21.7716 111.643 21.9109C111.6 22.0464 111.538 22.1703 111.456 22.2825C111.378 22.3909 111.283 22.4838 111.17 22.5612C111.058 22.6348 110.931 22.6851 110.792 22.7122L111.806 24.3031H111.345L110.372 22.7818H109.148V24.3031H108.74ZM109.148 22.4219H110.5C110.621 22.4219 110.729 22.3967 110.827 22.3464C110.928 22.2922 111.013 22.2206 111.083 22.1315C111.153 22.0425 111.207 21.9419 111.246 21.8296C111.285 21.7174 111.304 21.5993 111.304 21.4754C111.304 21.3516 111.281 21.2335 111.235 21.1213C111.192 21.0051 111.132 20.9045 111.054 20.8193C110.98 20.7342 110.891 20.6665 110.786 20.6161C110.685 20.5658 110.578 20.5406 110.465 20.5406H109.148V22.4219Z" fill="#071A30"/>
<path d="M118.389 23.9431V24.3031H115.608V20.1807H118.336V20.5406H116.016V22.027H118.039V22.3696H116.016V23.9431H118.389Z" fill="#071A30"/>
<path fill-rule="evenodd" clip-rule="evenodd" d="M20.5826 0.669933H2.52595V24.8042H20.5826V0.669933ZM1.88477 0.03125V25.4429H21.2238V0.03125H1.88477Z" fill="#134278"/>
</svg>
