<svg width="141" height="55" viewBox="0 0 141 55" fill="none" xmlns="http://www.w3.org/2000/svg">
<g clip-path="url(#clip0)">
<path fill-rule="evenodd" clip-rule="evenodd" d="M70.5549 1.75928L80.2191 9.62261L79.9026 10.0085L70.5539 2.40183L61.3034 9.87905L60.9883 9.49217L70.5549 1.75928Z" fill="#134278"/>
<path fill-rule="evenodd" clip-rule="evenodd" d="M63.1035 7.93164H63.6038V13.8025H77.5051V7.93164H78.0052V14.3008H63.1035V7.93164Z" fill="#134278"/>
<path fill-rule="evenodd" clip-rule="evenodd" d="M79.6068 14.3434H61.2964V13.8452H79.6068V14.3434Z" fill="#0E325A"/>
<path fill-rule="evenodd" clip-rule="evenodd" d="M78.1029 15.9027C77.6315 15.7791 77.1833 15.7111 76.6682 15.8044C76.0142 15.9229 75.633 16.0202 75.2277 16.2289C74.8158 16.441 74.3695 16.7731 73.6014 17.3849C73.206 17.7743 72.5155 18.1871 71.7385 18.4327C70.9568 18.6799 70.0481 18.77 69.2367 18.4584C68.0888 18.094 67.381 17.7284 66.7613 17.4069L66.7534 17.4029C66.1406 17.0847 65.6243 16.817 64.836 16.6206C64.1504 16.4499 63.4666 16.6158 62.8767 16.8968C62.2876 17.1774 61.8155 17.5624 61.5699 17.7907L61.2285 17.4265C61.4972 17.1766 62.0111 16.7568 62.6609 16.4472C63.3098 16.1381 64.1177 15.9281 64.9573 16.1373C65.8031 16.3479 66.3634 16.6386 66.9743 16.9556L66.9924 16.9649C67.6058 17.2833 68.285 17.634 69.3958 17.986L69.4032 17.9883L69.4106 17.9912C70.0786 18.25 70.8641 18.1863 71.5871 17.9578C72.3103 17.7292 72.9315 17.3477 73.2577 17.0226L73.2676 17.0129L73.2785 17.0042C74.0469 16.3918 74.5331 16.0256 74.998 15.7862C75.4715 15.5424 75.9132 15.4348 76.5788 15.3142C77.1953 15.2025 77.7244 15.2883 78.2302 15.4208C78.4122 15.4684 78.5853 15.5201 78.7573 15.5714C79.0771 15.6668 79.3926 15.7611 79.7542 15.8265L79.6649 16.3167C79.2784 16.2467 78.9125 16.1379 78.5756 16.0378C78.4109 15.9889 78.2529 15.942 78.1029 15.9027Z" fill="#02B6F2"/>
<path fill-rule="evenodd" clip-rule="evenodd" d="M78.1029 21.1606C77.6315 21.0371 77.1833 20.969 76.6682 21.0622C76.0142 21.1807 75.633 21.278 75.2277 21.4867C74.8158 21.6988 74.3695 22.0309 73.6014 22.6429C73.206 23.0321 72.5155 23.4449 71.7385 23.6905C70.9568 23.9377 70.0481 24.0281 69.2367 23.7165C68.0888 23.352 67.381 22.9862 66.7613 22.6648L66.7534 22.6607C66.1406 22.3427 65.6243 22.0748 64.836 21.8786C64.1504 21.7079 63.4666 21.8736 62.8767 22.1546C62.2876 22.4352 61.8155 22.8202 61.5699 23.0485L61.2285 22.6843C61.4972 22.4346 62.0111 22.0147 62.6609 21.7052C63.3098 21.3959 64.1177 21.1861 64.9573 21.3951C65.8031 21.6059 66.3634 21.8964 66.9743 22.2134L66.9924 22.2229C67.6058 22.5411 68.285 22.8918 69.3958 23.2438L69.4032 23.2463L69.4106 23.2491C70.0786 23.5078 70.8641 23.4443 71.5871 23.2158C72.3103 22.987 72.9315 22.6055 73.2577 22.2806L73.2676 22.2707L73.2785 22.2622C74.0469 21.6498 74.5331 21.2837 74.998 21.0441C75.4715 20.8002 75.9132 20.6926 76.5788 20.572C77.1953 20.4603 77.7244 20.5461 78.2302 20.6786C78.4122 20.7265 78.5853 20.7781 78.7573 20.8294C79.0771 20.9248 79.3926 21.0189 79.7542 21.0843L79.6649 21.5745C79.2784 21.5047 78.9125 21.3959 78.5756 21.2958C78.4109 21.2469 78.2529 21.1998 78.1029 21.1606Z" fill="#02B6F2"/>
<path fill-rule="evenodd" clip-rule="evenodd" d="M78.1029 18.5317C77.6313 18.4082 77.1833 18.34 76.6682 18.4333C76.0142 18.5518 75.633 18.6491 75.2277 18.8578C74.8158 19.0699 74.3695 19.402 73.6014 20.014C73.206 20.4032 72.5155 20.816 71.7385 21.0616C70.9568 21.3088 70.0481 21.3991 69.2367 21.0875C68.0888 20.7231 67.381 20.3573 66.7613 20.0358L66.7534 20.0318C66.1406 19.7138 65.6243 19.4459 64.836 19.2497C64.1504 19.079 63.4666 19.2447 62.8767 19.5257C62.2876 19.8063 61.8155 20.1913 61.5699 20.4196L61.2285 20.0554C61.4972 19.8057 62.0111 19.3857 62.6609 19.0763C63.3098 18.767 64.1177 18.5572 64.9573 18.7662C65.8031 18.977 66.3632 19.2675 66.9743 19.5845L66.9924 19.594C67.6058 19.9122 68.285 20.2629 69.3958 20.6149L69.4032 20.6174L69.4106 20.6201C70.0786 20.8789 70.8641 20.8154 71.5871 20.5869C72.3103 20.3581 72.9315 19.9766 73.2577 19.6517L73.2676 19.6418L73.2785 19.6333C74.0469 19.0209 74.5331 18.6547 74.998 18.4151C75.4715 18.1713 75.9132 18.0637 76.5788 17.9431C77.1953 17.8314 77.7244 17.9172 78.2302 18.0497C78.4122 18.0975 78.5853 18.1492 78.7573 18.2005C79.0771 18.2959 79.3926 18.39 79.7542 18.4554L79.6649 18.9456C79.2784 18.8758 78.9125 18.767 78.5756 18.6669C78.4109 18.618 78.2529 18.5709 78.1029 18.5317Z" fill="#02B6F2"/>
<path d="M2.07118 41.9133C2.07118 41.9133 2.12946 41.7585 2.24604 41.4489C2.37564 41.1262 2.5439 40.694 2.75122 40.1521C2.95853 39.6102 3.19169 39.0102 3.45069 38.3522C3.72271 37.6812 3.99472 36.9974 4.26674 36.3007C4.53876 35.591 4.79776 34.9136 5.04393 34.2685C5.30293 33.6234 5.52968 33.0556 5.72398 32.5654C5.77585 32.4622 5.88583 32.3461 6.05428 32.217C6.23556 32.0879 6.37157 32.0234 6.46231 32.0234C6.48815 32.0234 6.50117 32.0298 6.50117 32.0428C6.51418 32.0428 6.53361 32.0492 6.55946 32.0621L10.426 42.165C10.711 42.9134 10.8729 43.3262 10.9117 43.4036C10.9764 43.5455 11.0996 43.6682 11.2809 43.7713C11.4752 43.8745 11.6631 43.9519 11.8444 44.0036C12.0387 44.0423 12.1616 44.0616 12.2135 44.0616C12.2654 44.1261 12.2848 44.2294 12.2718 44.3713C12.2588 44.5004 12.246 44.5778 12.233 44.6036C11.8574 44.5778 11.5205 44.5585 11.2226 44.5455C10.9247 44.5198 10.5684 44.5068 10.154 44.5068C9.71349 44.5068 9.34433 44.5198 9.04647 44.5455C8.76143 44.5585 8.39888 44.5778 7.9584 44.6036C7.90652 44.5519 7.88068 44.4617 7.88068 44.3326C7.8937 44.2035 7.92595 44.1133 7.97783 44.0616C8.09441 44.0616 8.27569 44.0423 8.52186 44.0036C8.76804 43.9519 8.9363 43.8875 9.02704 43.81C9.07892 43.7584 9.10476 43.6682 9.10476 43.5391C9.10476 43.423 9.05949 43.2294 8.96875 42.9585C8.89103 42.6745 8.78747 42.3585 8.65787 42.0101C8.52828 41.6617 8.39887 41.3263 8.26928 41.0037C8.13968 40.6683 8.02971 40.3973 7.93897 40.1908C7.86125 39.9716 7.82239 39.8618 7.82239 39.8618C7.82239 39.8618 7.80937 39.8489 7.78353 39.8231C7.75769 39.7974 7.73166 39.7844 7.70581 39.7844C7.51152 39.7714 7.27195 39.765 6.98691 39.765C6.70188 39.765 6.43647 39.765 6.19029 39.765C6.12559 39.765 6.06069 39.765 5.99599 39.765C5.93129 39.765 5.873 39.765 5.82112 39.765C5.43253 39.765 5.10222 39.7714 4.8302 39.7844C4.55819 39.7844 4.20845 39.7974 3.781 39.8231C3.76798 39.8231 3.74855 39.8361 3.72271 39.8618C3.69687 39.8748 3.68385 39.8812 3.68385 39.8812C3.68385 39.8812 3.63197 40.0103 3.52841 40.2683C3.43767 40.5262 3.32109 40.8359 3.17867 41.1973C3.04908 41.5456 2.9325 41.8746 2.82894 42.1843C2.71236 42.5069 2.63464 42.7779 2.59578 42.9972C2.56994 43.2165 2.55692 43.3906 2.55692 43.5197C2.55692 43.6616 2.65407 43.7777 2.84837 43.8681C3.05568 43.9455 3.2628 43.9972 3.47012 44.0229C3.69026 44.0487 3.82627 44.0616 3.87815 44.0616C3.90399 44.0874 3.92342 44.1714 3.93643 44.3132C3.94945 44.4423 3.94285 44.5391 3.91701 44.6036C3.67083 44.5906 3.4571 44.5778 3.27582 44.5649C3.10737 44.5519 2.9325 44.5391 2.75122 44.5261C2.58276 44.5132 2.35621 44.5068 2.07118 44.5068C1.78614 44.5068 1.54657 44.5132 1.35227 44.5261C1.15797 44.5391 0.963677 44.5519 0.769379 44.5649C0.575081 44.5778 0.328965 44.5906 0.031048 44.6036C0.00514806 44.5778 -0.0078125 44.5004 -0.0078125 44.3713C-0.0078125 44.2294 0.00514806 44.1261 0.031048 44.0616C0.147627 44.0616 0.341925 44.0359 0.613942 43.9842C0.898918 43.9198 1.08673 43.823 1.1774 43.6939C1.3717 43.4487 1.53355 43.1777 1.66315 42.8811C1.80557 42.5714 1.94158 42.2488 2.07118 41.9133ZM5.78226 34.3072L4.05301 38.9135C4.05301 38.9135 4.05301 38.9264 4.05301 38.9522C4.06603 38.9779 4.07885 38.9909 4.09187 38.9909C4.33805 39.0039 4.62949 39.0166 4.96621 39.0296C5.31595 39.0296 5.59438 39.0296 5.80169 39.0296C6.09955 39.0296 6.36516 39.0232 6.59832 39.0102C6.84449 38.9973 7.1099 38.9845 7.39494 38.9715C7.42078 38.9715 7.4338 38.9586 7.4338 38.9328C7.44681 38.8941 7.45323 38.8748 7.45323 38.8748L5.78226 34.3072Z" fill="#071A30"/>
<path d="M21.342 31.9463C22.1838 31.9463 22.9741 32.1011 23.7124 32.4108C24.4637 32.7204 25.1244 33.1656 25.6942 33.7462C26.2641 34.3139 26.711 34.9913 27.0349 35.7784C27.3716 36.5525 27.5401 37.4105 27.5401 38.3525C27.5401 39.3202 27.3458 40.2168 26.9572 41.0427C26.5686 41.8685 26.0376 42.578 25.3639 43.1716C24.7033 43.7652 23.952 44.1974 23.1101 44.4683C23.5634 44.6876 23.9455 44.8941 24.2564 45.0877C24.5673 45.2812 24.8587 45.449 25.1308 45.5909C25.4028 45.7457 25.7006 45.8618 26.0245 45.9392C26.3613 46.0296 26.7759 46.0747 27.268 46.0747C27.6436 46.0747 27.9417 46.0554 28.1618 46.0167C28.395 45.9909 28.544 45.9716 28.6087 45.9586C28.6734 45.9586 28.7383 45.9716 28.803 45.9973C28.8807 46.023 28.9326 46.0554 28.9584 46.0941C28.9714 46.107 28.9779 46.1264 28.9779 46.1521C28.4597 46.4231 27.9481 46.649 27.4429 46.8295C26.9508 47.0231 26.4131 47.1198 25.8302 47.1198C25.3251 47.1198 24.8393 47.0167 24.373 46.8102C23.9197 46.6037 23.4598 46.3521 22.9935 46.0554C22.5272 45.7714 22.035 45.4877 21.5168 45.2038C21.0117 44.9199 20.4482 44.7006 19.8264 44.5458C18.9457 44.3265 18.1555 43.9328 17.456 43.3652C16.7565 42.7845 16.2061 42.0684 15.8045 41.2169C15.4029 40.3523 15.2021 39.3976 15.2021 38.3525C15.2021 37.4622 15.364 36.63 15.6879 35.8558C16.0118 35.0816 16.4521 34.4043 17.0091 33.8236C17.579 33.23 18.2332 32.7721 18.9715 32.4495C19.7229 32.1141 20.5129 31.9463 21.342 31.9463ZM21.0699 32.585C20.3575 32.585 19.7487 32.7462 19.2435 33.0688C18.7384 33.3785 18.3239 33.7913 18 34.3075C17.6892 34.8237 17.456 35.3977 17.3006 36.03C17.1581 36.6623 17.0868 37.2944 17.0868 37.9267C17.0868 38.6621 17.184 39.3976 17.3783 40.133C17.5856 40.8555 17.8835 41.5201 18.2721 42.1265C18.6606 42.7201 19.1334 43.1974 19.6904 43.5587C20.2603 43.92 20.9145 44.1006 21.6528 44.1006C22.3653 44.1006 22.9741 43.9458 23.4792 43.6361C23.9844 43.3135 24.3988 42.8877 24.7227 42.3588C25.0466 41.8298 25.2798 41.2492 25.4222 40.6169C25.5776 39.9718 25.6554 39.3331 25.6554 38.7008C25.6554 37.9654 25.5518 37.2363 25.3445 36.5138C25.1502 35.7914 24.8523 35.1333 24.4507 34.5397C24.0621 33.9461 23.5828 33.4753 23.0129 33.1269C22.4559 32.7655 21.8083 32.585 21.0699 32.585Z" fill="#071A30"/>
<path d="M33.6154 32.1202C33.9909 32.1202 34.3537 32.1138 34.7034 32.1009C35.0662 32.0751 35.4418 32.0558 35.8304 32.0428C35.8822 32.0945 35.9017 32.1847 35.8886 32.3137C35.8886 32.4428 35.8692 32.533 35.8304 32.5847C35.7526 32.5847 35.6102 32.5977 35.4029 32.6234C35.2086 32.6364 35.0207 32.6621 34.8394 32.7008C34.6582 32.7395 34.5544 32.7976 34.5286 32.875C34.4767 33.0299 34.4444 33.2364 34.4314 33.4943C34.4314 33.7396 34.4314 34.0039 34.4314 34.2879V38.9522C34.4314 39.7393 34.5091 40.4231 34.6646 41.0037C34.833 41.5843 35.0662 42.0618 35.364 42.4359C35.96 43.1584 36.8277 43.5197 37.9676 43.5197C38.6282 43.5197 39.2306 43.3972 39.7746 43.152C40.3186 42.9068 40.7591 42.4876 41.0958 41.894C41.4456 41.2876 41.6268 40.4424 41.6399 39.3586V34.2491C41.6399 33.9137 41.6335 33.6492 41.6204 33.4556C41.6074 33.2621 41.5491 33.0879 41.4456 32.9331C41.4067 32.8686 41.2965 32.8106 41.1153 32.7589C40.934 32.6944 40.7397 32.6492 40.5324 32.6234C40.3381 32.5847 40.189 32.5654 40.0855 32.5654C40.0336 32.5009 40.0078 32.4105 40.0078 32.2944C40.0208 32.1653 40.0336 32.0751 40.0466 32.0234C40.4222 32.0364 40.7591 32.0558 41.057 32.0815C41.3678 32.0945 41.7306 32.1009 42.145 32.1009C42.4429 32.1009 42.6827 32.1009 42.8639 32.1009C43.0582 32.0879 43.2525 32.0751 43.4468 32.0621C43.6541 32.0492 43.9001 32.0364 44.1852 32.0234C44.211 32.0751 44.2304 32.1525 44.2435 32.2557C44.2565 32.3588 44.237 32.4622 44.1852 32.5654C44.1074 32.5654 43.9584 32.5783 43.7383 32.6041C43.5181 32.6298 43.3044 32.6751 43.0971 32.7395C42.8898 32.7912 42.7604 32.8557 42.7085 32.9331C42.6178 33.0749 42.5595 33.2364 42.5336 33.4169C42.5206 33.5975 42.5142 33.8685 42.5142 34.2298V39.3199C42.5142 40.5715 42.3069 41.5907 41.8924 42.3778C41.478 43.152 40.8951 43.7197 40.1438 44.081C39.4054 44.4423 38.5441 44.6229 37.5596 44.6229C36.886 44.6229 36.2578 44.5132 35.6749 44.2939C35.092 44.0746 34.5933 43.7649 34.1788 43.3649C33.7384 42.9521 33.3952 42.4423 33.1491 41.8359C32.9029 41.2296 32.7799 40.5522 32.7799 39.8038V34.2879C32.7799 34.0039 32.7735 33.7396 32.7605 33.4943C32.7605 33.2364 32.7346 33.0299 32.6827 32.875C32.6697 32.7976 32.5662 32.7395 32.3719 32.7008C32.1906 32.6621 31.9963 32.6364 31.789 32.6234C31.5947 32.5977 31.4587 32.5847 31.3809 32.5847C31.3421 32.533 31.3162 32.4428 31.3032 32.3137C31.3032 32.1847 31.3291 32.0945 31.3809 32.0428C31.7695 32.0558 32.1451 32.0751 32.5079 32.1009C32.8834 32.1138 33.2526 32.1202 33.6154 32.1202Z" fill="#071A30"/>
<path d="M48.1664 41.9133C48.1664 41.9133 48.2247 41.7585 48.3413 41.4489C48.4709 41.1262 48.6393 40.694 48.8464 40.1521C49.0537 39.6102 49.2869 39.0102 49.5459 38.3522C49.8179 37.6812 50.0899 36.9974 50.362 36.3007C50.634 35.591 50.8932 34.9136 51.1392 34.2685C51.3983 33.6234 51.6249 33.0556 51.8192 32.5654C51.8711 32.4622 51.9812 32.3461 52.1495 32.217C52.3308 32.0879 52.467 32.0234 52.5575 32.0234C52.5836 32.0234 52.5964 32.0298 52.5964 32.0428C52.6094 32.0428 52.6288 32.0492 52.6547 32.0621L56.5212 42.165C56.8062 42.9134 56.9681 43.3262 57.007 43.4036C57.0718 43.5455 57.1948 43.6682 57.3761 43.7713C57.5704 43.8745 57.7583 43.9519 57.9396 44.0036C58.1339 44.0423 58.2571 44.0616 58.3088 44.0616C58.3606 44.1261 58.3801 44.2294 58.367 44.3713C58.354 44.5004 58.3412 44.5778 58.3282 44.6036C57.9526 44.5778 57.6159 44.5585 57.3178 44.5455C57.02 44.5198 56.6638 44.5068 56.2492 44.5068C55.8089 44.5068 55.4397 44.5198 55.1417 44.5455C54.8568 44.5585 54.4941 44.5778 54.0536 44.6036C54.0019 44.5519 53.9759 44.4617 53.9759 44.3326C53.9889 44.2035 54.0214 44.1133 54.073 44.0616C54.1896 44.0616 54.3711 44.0423 54.6171 44.0036C54.8633 43.9519 55.0317 43.8875 55.1223 43.81C55.1741 43.7584 55.2 43.6682 55.2 43.5391C55.2 43.423 55.1547 43.2294 55.064 42.9585C54.9863 42.6745 54.8827 42.3585 54.7531 42.0101C54.6237 41.6617 54.4941 41.3263 54.3645 41.0037C54.2351 40.6683 54.1249 40.3973 54.0342 40.1908C53.9565 39.9716 53.9176 39.8618 53.9176 39.8618C53.9176 39.8618 53.9048 39.8489 53.8788 39.8231C53.8529 39.7974 53.8271 39.7844 53.801 39.7844C53.6067 39.7714 53.3672 39.765 53.0821 39.765C52.7973 39.765 52.5317 39.765 52.2855 39.765C52.2208 39.765 52.1561 39.765 52.0912 39.765C52.0265 39.765 51.9682 39.765 51.9163 39.765C51.5277 39.765 51.1974 39.7714 50.9254 39.7844C50.6534 39.7844 50.3037 39.7974 49.8762 39.8231C49.8634 39.8231 49.844 39.8361 49.8179 39.8618C49.7921 39.8748 49.7791 39.8812 49.7791 39.8812C49.7791 39.8812 49.7274 40.0103 49.6236 40.2683C49.5331 40.5262 49.4165 40.8359 49.2739 41.1973C49.1445 41.5456 49.0279 41.8746 48.9241 42.1843C48.8076 42.5069 48.7299 42.7779 48.691 42.9972C48.6652 43.2165 48.6521 43.3906 48.6521 43.5197C48.6521 43.6616 48.7493 43.7777 48.9436 43.8681C49.1509 43.9455 49.3582 43.9972 49.5653 44.0229C49.7857 44.0487 49.9217 44.0616 49.9734 44.0616C49.9994 44.0874 50.0188 44.1714 50.0317 44.3132C50.0447 44.4423 50.0383 44.5391 50.0122 44.6036C49.7662 44.5906 49.5525 44.5778 49.371 44.5649C49.2028 44.5519 49.0279 44.5391 48.8464 44.5261C48.6782 44.5132 48.4514 44.5068 48.1664 44.5068C47.8815 44.5068 47.6418 44.5132 47.4475 44.5261C47.2532 44.5391 47.0589 44.5519 46.8646 44.5649C46.6703 44.5778 46.4243 44.5906 46.1263 44.6036C46.1004 44.5778 46.0874 44.5004 46.0874 44.3713C46.0874 44.2294 46.1004 44.1261 46.1263 44.0616C46.2428 44.0616 46.4371 44.0359 46.7092 43.9842C46.9942 43.9198 47.1821 43.823 47.2726 43.6939C47.4669 43.4487 47.629 43.1777 47.7584 42.8811C47.901 42.5714 48.037 42.2488 48.1664 41.9133ZM51.8775 34.3072L50.1482 38.9135C50.1482 38.9135 50.1482 38.9264 50.1482 38.9522C50.1612 38.9779 50.1743 38.9909 50.1871 38.9909C50.4333 39.0039 50.7247 39.0166 51.0614 39.0296C51.4112 39.0296 51.6898 39.0296 51.8969 39.0296C52.195 39.0296 52.4604 39.0232 52.6935 39.0102C52.9397 38.9973 53.2053 38.9845 53.4902 38.9715C53.5162 38.9715 53.529 38.9586 53.529 38.9328C53.542 38.8941 53.5484 38.8748 53.5484 38.8748L51.8775 34.3072Z" fill="#071A30"/>
<path d="M73.9365 31.9653C74.3381 31.9653 74.6684 31.9911 74.9274 32.0427C75.1995 32.0815 75.4715 32.1395 75.7435 32.2169C76.0285 32.2943 76.3783 32.3847 76.7927 32.4879C76.8704 32.9781 76.9287 33.4879 76.9676 34.0169C77.0194 34.533 77.0517 34.9201 77.0647 35.1781C77.0777 35.2425 77.0323 35.2942 76.9287 35.3329C76.8251 35.3587 76.7408 35.3716 76.6761 35.3716C76.5854 35.3716 76.5143 35.3459 76.4624 35.2942C76.4366 35.062 76.3588 34.791 76.2292 34.4814C76.0996 34.1717 75.9184 33.875 75.6852 33.5911C75.4651 33.3071 75.193 33.0749 74.8691 32.8943C74.5583 32.7008 74.2021 32.604 73.8005 32.604C73.2823 32.604 72.8743 32.7138 72.5764 32.933C72.2786 33.1523 72.0649 33.4233 71.9353 33.7459C71.8057 34.0685 71.741 34.3846 71.741 34.6942C71.741 35.1975 71.8706 35.6169 72.1296 35.9523C72.4016 36.2877 72.7383 36.5846 73.1399 36.8425C73.5543 37.1005 73.969 37.3651 74.3834 37.6361C74.6943 37.8296 75.0376 38.0425 75.4132 38.2747C75.7888 38.507 76.1515 38.765 76.5013 39.0489C76.851 39.3328 77.136 39.6618 77.3562 40.036C77.5763 40.3973 77.6865 40.8101 77.6865 41.2746C77.6865 41.9584 77.4922 42.5649 77.1036 43.0939C76.728 43.6101 76.2357 44.0165 75.6269 44.3132C75.031 44.5971 74.3964 44.739 73.7228 44.739C73.088 44.739 72.4729 44.6679 71.877 44.5261C71.2941 44.3842 70.7695 44.2681 70.3031 44.1777C70.2254 43.8036 70.1541 43.4035 70.0894 42.9778C70.0375 42.552 69.9923 42.1779 69.9534 41.8552C69.9276 41.5326 69.9146 41.3327 69.9146 41.2553C69.9793 41.1908 70.0506 41.1391 70.1283 41.1004C70.219 41.0487 70.3096 41.023 70.4003 41.023C70.5169 41.023 70.5882 41.0811 70.614 41.1972C70.6529 41.3778 70.7306 41.6294 70.8472 41.952C70.9768 42.2617 71.1581 42.5843 71.3912 42.9197C71.6374 43.2551 71.9483 43.539 72.3239 43.7713C72.7124 43.9906 73.1918 44.1003 73.7617 44.1003C74.3704 44.1003 74.9016 43.9004 75.3549 43.5003C75.8082 43.0875 76.0349 42.5133 76.0349 41.7778C76.0349 41.2489 75.9119 40.8358 75.6658 40.5392C75.4326 40.2425 75.1217 39.9843 74.7331 39.765C74.3576 39.5457 73.9495 39.3135 73.5091 39.0683C73.0297 38.7843 72.5312 38.4747 72.013 38.1393C71.5078 37.7909 71.0803 37.3845 70.7306 36.92C70.3809 36.4555 70.206 35.9072 70.206 35.2749C70.206 34.6039 70.3809 34.0232 70.7306 33.533C71.0934 33.0298 71.5597 32.6427 72.1296 32.3718C72.6994 32.1008 73.3017 31.9653 73.9365 31.9653Z" fill="#071A30"/>
<path d="M84.122 32.1204C84.4459 32.1204 84.7309 32.114 84.9769 32.101C85.223 32.0753 85.4498 32.0559 85.6569 32.043C85.7346 32.2882 85.8772 32.6687 86.0844 33.1849C86.3047 33.701 86.5573 34.3138 86.8421 35.0235C87.1402 35.7202 87.4575 36.4621 87.7942 37.2492C88.1311 38.0363 88.4614 38.8233 88.7851 39.6104C89.109 40.3846 89.4069 41.107 89.6789 41.778C89.6919 41.8038 89.7177 41.8168 89.7566 41.8168C89.7954 41.8168 89.8215 41.791 89.8343 41.7393C90.2101 40.7846 90.5468 39.9264 90.8447 39.1653C91.1427 38.3911 91.4406 37.6233 91.7384 36.8621C92.0493 36.088 92.3862 35.2364 92.7488 34.3074C92.8653 34.0107 92.9885 33.6881 93.1179 33.3397C93.2475 32.9913 93.3577 32.688 93.4482 32.43C93.539 32.1721 93.5842 32.043 93.5842 32.043C94.1932 32.0817 94.6917 32.101 95.0803 32.101C95.4173 32.101 95.7928 32.0946 96.2073 32.0817C96.6347 32.0687 96.965 32.0559 97.1982 32.043C97.2112 32.0687 97.2242 32.1655 97.237 32.3333C97.2501 32.5011 97.2565 32.5849 97.2565 32.5849C97.1659 32.5849 97.0169 32.5978 96.8096 32.6236C96.6153 32.6493 96.4276 32.688 96.2461 32.7397C96.0648 32.7914 95.9547 32.8495 95.9158 32.9139C95.877 33.0043 95.8511 33.1204 95.8381 33.2623C95.8253 33.4041 95.8187 33.5332 95.8187 33.6494C95.8317 33.972 95.8447 34.4622 95.8575 35.1203C95.8705 35.7783 95.8836 36.5201 95.8964 37.346C95.9224 38.1588 95.9419 38.9653 95.9547 39.7652C95.9807 40.5651 96.0001 41.2748 96.013 41.8942C96.026 42.2555 96.0454 42.5973 96.0713 42.9199C96.0973 43.2426 96.1556 43.5135 96.2461 43.7328C96.285 43.8232 96.4016 43.894 96.5959 43.9457C96.7902 43.9844 96.9845 44.0167 97.1787 44.0425C97.3861 44.0554 97.5157 44.0618 97.5673 44.0618C97.6192 44.1522 97.6386 44.2618 97.6256 44.3908C97.6256 44.507 97.6192 44.578 97.6062 44.6037C97.2306 44.578 96.8615 44.5586 96.4987 44.5457C96.149 44.5199 95.767 44.507 95.3524 44.507C94.9121 44.507 94.5299 44.5199 94.206 44.5457C93.8823 44.5586 93.5001 44.578 93.0596 44.6037C93.0468 44.578 93.0338 44.5006 93.0208 44.3715C93.008 44.2424 93.0208 44.1392 93.0596 44.0618C93.1374 44.0618 93.2605 44.0554 93.4288 44.0425C93.5973 44.0167 93.7657 43.9908 93.934 43.9651C94.1024 43.9263 94.2254 43.8876 94.3031 43.8489C94.368 43.8102 94.4133 43.7005 94.4392 43.5199C94.4652 43.3393 94.478 43.1845 94.478 43.0554C94.478 42.9135 94.4716 42.7328 94.4586 42.5135C94.4458 42.2813 94.4392 42.0941 94.4392 41.9522C94.4133 41.0362 94.3875 40.1587 94.3614 39.3201C94.3356 38.4685 94.3098 37.604 94.2837 36.7266C94.2579 35.8364 94.2254 34.8816 94.1866 33.8622C94.1866 33.8235 94.1737 33.7525 94.1477 33.6494C94.1219 33.5462 94.0766 33.4945 94.0117 33.4945C93.9859 33.4945 93.9534 33.5396 93.9146 33.63C93.526 34.5977 93.1634 35.4944 92.8265 36.3202C92.5028 37.146 92.1853 37.9459 91.8744 38.7201C91.5636 39.4813 91.2463 40.262 90.9224 41.0619C90.6115 41.8491 90.2748 42.7007 89.912 43.6167C89.8862 43.6684 89.8279 43.7715 89.7372 43.9263C89.6466 44.0812 89.5495 44.2296 89.4457 44.3715C89.3552 44.5006 89.2708 44.5714 89.1931 44.5844C89.1673 44.5974 89.122 44.5908 89.0571 44.565C89.0443 44.5521 89.0313 44.5457 89.0183 44.5457L84.394 33.5139C84.3812 34.3397 84.3617 35.1913 84.3357 36.0686C84.3099 36.9459 84.284 37.7975 84.258 38.6233C84.2451 39.4492 84.2257 40.1974 84.1997 40.8684C84.1869 41.5264 84.1738 42.062 84.1608 42.4748C84.148 42.8748 84.1414 43.0941 84.1414 43.1328C84.1414 43.2232 84.148 43.3264 84.1608 43.4425C84.1738 43.5456 84.1933 43.636 84.2191 43.7135C84.258 43.8038 84.3876 43.8747 84.6077 43.9263C84.8409 43.978 85.074 44.0167 85.3072 44.0425C85.5403 44.0554 85.683 44.0618 85.7346 44.0618C85.7865 44.1135 85.8059 44.2103 85.7929 44.3521C85.7801 44.494 85.7671 44.578 85.7541 44.6037C85.3785 44.578 85.0546 44.5586 84.7826 44.5457C84.5106 44.5199 84.1674 44.507 83.7528 44.507C83.3125 44.507 82.9434 44.5199 82.6453 44.5457C82.3474 44.5586 81.9783 44.578 81.5378 44.6037C81.525 44.578 81.512 44.5006 81.4989 44.3715C81.4861 44.2424 81.4989 44.1392 81.5378 44.0618C81.6155 44.0618 81.7645 44.0489 81.9847 44.0231C82.2178 43.9974 82.4446 43.9587 82.6647 43.907C82.8851 43.8553 83.0211 43.7909 83.0728 43.7135C83.1635 43.5844 83.2218 43.4489 83.2476 43.307C83.2737 43.1522 83.2931 42.9716 83.3059 42.7651C83.3448 41.6296 83.3772 40.5394 83.4031 39.4943C83.4419 38.4492 83.468 37.5138 83.4808 36.6879C83.5068 35.8493 83.5262 35.1719 83.5391 34.6558C83.5521 34.1268 83.5585 33.8172 83.5585 33.7268C83.5585 33.5849 83.5521 33.4494 83.5391 33.3203C83.5391 33.1912 83.5196 33.0751 83.4808 32.972C83.4549 32.8945 83.3448 32.8301 83.1505 32.7784C82.9692 32.714 82.7749 32.6687 82.5676 32.6429C82.3733 32.6042 82.2373 32.5849 82.1596 32.5849C82.1467 32.5849 82.1401 32.5011 82.1401 32.3333C82.1401 32.1527 82.1467 32.0559 82.1596 32.043C82.4576 32.0559 82.6972 32.0687 82.8785 32.0817C83.0599 32.0946 83.2412 32.1074 83.4225 32.1204C83.604 32.1204 83.8371 32.1204 84.122 32.1204Z" fill="#071A30"/>
<path d="M102.557 41.9133C102.557 41.9133 102.615 41.7585 102.731 41.4489C102.861 41.1262 103.029 40.694 103.237 40.1521C103.444 39.6102 103.677 39.0102 103.936 38.3522C104.208 37.6812 104.48 36.9974 104.752 36.3007C105.024 35.591 105.283 34.9136 105.529 34.2685C105.788 33.6234 106.015 33.0556 106.209 32.5654C106.261 32.4622 106.371 32.3461 106.54 32.217C106.721 32.0879 106.857 32.0234 106.948 32.0234C106.974 32.0234 106.987 32.0298 106.987 32.0428C107 32.0428 107.019 32.0492 107.045 32.0621L110.911 42.165C111.196 42.9134 111.358 43.3262 111.397 43.4036C111.462 43.5455 111.585 43.6682 111.766 43.7713C111.961 43.8745 112.148 43.9519 112.33 44.0036C112.524 44.0423 112.647 44.0616 112.699 44.0616C112.751 44.1261 112.77 44.2294 112.757 44.3713C112.744 44.5004 112.731 44.5778 112.718 44.6036C112.343 44.5778 112.006 44.5585 111.708 44.5455C111.41 44.5198 111.054 44.5068 110.639 44.5068C110.199 44.5068 109.83 44.5198 109.532 44.5455C109.247 44.5585 108.884 44.5778 108.444 44.6036C108.392 44.5519 108.366 44.4617 108.366 44.3326C108.379 44.2035 108.411 44.1133 108.463 44.0616C108.58 44.0616 108.761 44.0423 109.007 44.0036C109.253 43.9519 109.422 43.8875 109.512 43.81C109.564 43.7584 109.59 43.6682 109.59 43.5391C109.59 43.423 109.545 43.2294 109.454 42.9585C109.376 42.6745 109.273 42.3585 109.143 42.0101C109.014 41.6617 108.884 41.3263 108.755 41.0037C108.625 40.6683 108.515 40.3973 108.424 40.1908C108.347 39.9716 108.308 39.8618 108.308 39.8618C108.308 39.8618 108.295 39.8489 108.269 39.8231C108.243 39.7974 108.217 39.7844 108.191 39.7844C107.997 39.7714 107.757 39.765 107.472 39.765C107.187 39.765 106.922 39.765 106.676 39.765C106.611 39.765 106.546 39.765 106.481 39.765C106.417 39.765 106.358 39.765 106.306 39.765C105.918 39.765 105.588 39.7714 105.316 39.7844C105.044 39.7844 104.694 39.7974 104.266 39.8231C104.253 39.8231 104.234 39.8361 104.208 39.8618C104.182 39.8748 104.169 39.8812 104.169 39.8812C104.169 39.8812 104.117 40.0103 104.014 40.2683C103.923 40.5262 103.806 40.8359 103.664 41.1973C103.534 41.5456 103.418 41.8746 103.314 42.1843C103.198 42.5069 103.12 42.7779 103.081 42.9972C103.055 43.2165 103.042 43.3906 103.042 43.5197C103.042 43.6616 103.139 43.7777 103.334 43.8681C103.541 43.9455 103.748 43.9972 103.955 44.0229C104.176 44.0487 104.312 44.0616 104.363 44.0616C104.389 44.0874 104.409 44.1714 104.422 44.3132C104.435 44.4423 104.428 44.5391 104.402 44.6036C104.156 44.5906 103.942 44.5778 103.761 44.5649C103.593 44.5519 103.418 44.5391 103.237 44.5261C103.068 44.5132 102.842 44.5068 102.557 44.5068C102.271 44.5068 102.032 44.5132 101.838 44.5261C101.643 44.5391 101.449 44.5519 101.255 44.5649C101.06 44.5778 100.814 44.5906 100.516 44.6036C100.491 44.5778 100.478 44.5004 100.478 44.3713C100.478 44.2294 100.491 44.1261 100.516 44.0616C100.633 44.0616 100.827 44.0359 101.099 43.9842C101.384 43.9198 101.572 43.823 101.663 43.6939C101.857 43.4487 102.019 43.1777 102.149 42.8811C102.291 42.5714 102.427 42.2488 102.557 41.9133ZM106.268 34.3072L104.538 38.9135C104.538 38.9135 104.538 38.9264 104.538 38.9522C104.551 38.9779 104.564 38.9909 104.577 38.9909C104.823 39.0039 105.115 39.0166 105.452 39.0296C105.801 39.0296 106.08 39.0296 106.287 39.0296C106.585 39.0296 106.851 39.0232 107.084 39.0102C107.33 38.9973 107.595 38.9845 107.88 38.9715C107.906 38.9715 107.919 38.9586 107.919 38.9328C107.932 38.8941 107.939 38.8748 107.939 38.8748L106.268 34.3072Z" fill="#071A30"/>
<path d="M120.962 32.0817C121.39 32.0817 121.83 32.1527 122.283 32.2946C122.737 32.4364 123.151 32.6429 123.527 32.9139C123.915 33.1849 124.226 33.5268 124.459 33.9397C124.693 34.3397 124.809 34.8106 124.809 35.3525C124.809 35.804 124.68 36.2428 124.421 36.6686C124.175 37.0944 123.851 37.4685 123.449 37.7911C123.061 38.1137 122.653 38.346 122.225 38.4879C122.562 39.0427 122.886 39.5523 123.197 40.0168C123.507 40.4813 123.831 40.9458 124.168 41.4103C124.505 41.8618 124.881 42.3651 125.295 42.9199C125.567 43.2813 125.858 43.5522 126.169 43.7328C126.493 43.9134 126.914 44.0231 127.432 44.0618C127.484 44.1135 127.497 44.2103 127.471 44.3521C127.445 44.494 127.426 44.578 127.413 44.6037C126.778 44.6037 126.247 44.5844 125.82 44.5457C125.405 44.494 125.101 44.4359 124.906 44.3715C124.777 44.3198 124.595 44.2424 124.362 44.1392C124.129 44.0231 123.903 43.8232 123.682 43.5393C123.605 43.4361 123.462 43.236 123.255 42.9393C123.048 42.6426 122.802 42.2813 122.516 41.8555C122.232 41.4297 121.927 40.9781 121.603 40.5007C121.28 40.0104 120.969 39.533 120.671 39.0685C120.567 38.9137 120.373 38.8362 120.088 38.8362H119.097V42.3587C119.097 42.3974 119.097 42.4361 119.097 42.4748C119.097 42.5135 119.097 42.5522 119.097 42.5909C119.097 42.8361 119.097 43.0618 119.097 43.2683C119.11 43.4618 119.136 43.6231 119.175 43.7522C119.201 43.8166 119.304 43.8747 119.485 43.9263C119.667 43.978 119.861 44.0167 120.068 44.0425C120.276 44.0554 120.418 44.0618 120.496 44.0618C120.535 44.1135 120.554 44.2037 120.554 44.3328C120.567 44.4619 120.548 44.5521 120.496 44.6037C120.107 44.578 119.732 44.5586 119.369 44.5457C119.019 44.5199 118.657 44.507 118.281 44.507C117.918 44.507 117.549 44.5199 117.173 44.5457C116.798 44.5586 116.416 44.578 116.027 44.6037C115.975 44.5521 115.949 44.4619 115.949 44.3328C115.962 44.2037 115.988 44.1135 116.027 44.0618C116.105 44.0618 116.247 44.0554 116.454 44.0425C116.662 44.0167 116.856 43.978 117.037 43.9263C117.232 43.8747 117.335 43.8166 117.348 43.7522C117.4 43.5973 117.426 43.3974 117.426 43.1522C117.439 42.907 117.445 42.6426 117.445 42.3587L117.426 34.288C117.426 34.0041 117.419 33.7397 117.406 33.4945C117.406 33.2365 117.381 33.03 117.329 32.8752C117.316 32.7978 117.212 32.7397 117.018 32.701C116.837 32.6623 116.642 32.6366 116.435 32.6236C116.241 32.5978 116.105 32.5849 116.027 32.5849C115.988 32.5332 115.962 32.443 115.949 32.3139C115.949 32.1848 115.975 32.0946 116.027 32.043C116.416 32.0559 116.791 32.0753 117.154 32.101C117.53 32.114 117.899 32.1204 118.261 32.1204C118.637 32.1204 119.039 32.114 119.466 32.101C119.906 32.0881 120.405 32.0817 120.962 32.0817ZM123.041 35.5267C123.041 34.7009 122.815 34.0235 122.361 33.4945C121.921 32.9656 121.176 32.701 120.127 32.701C120.01 32.701 119.829 32.7074 119.583 32.7204C119.349 32.7333 119.213 32.7848 119.175 32.8752C119.123 32.9913 119.09 33.1912 119.077 33.4752C119.077 33.7461 119.077 34.0235 119.077 34.3074L119.097 38.2556H120.107C120.6 38.2556 121.066 38.1459 121.506 37.9266C121.96 37.6943 122.329 37.3783 122.614 36.9782C122.899 36.5654 123.041 36.0816 123.041 35.5267Z" fill="#071A30"/>
<path d="M138.682 32.0427C138.837 32.0427 139.038 32.0104 139.284 31.9459C139.53 31.8815 139.712 31.8234 139.828 31.7718C139.932 31.7201 140.003 31.6943 140.042 31.6943C140.081 31.6943 140.126 31.7073 140.178 31.733C140.243 32.3137 140.314 32.8749 140.392 33.4168C140.482 33.9588 140.58 34.4813 140.683 34.9845C140.657 35.0103 140.612 35.0426 140.547 35.0813C140.482 35.12 140.404 35.133 140.314 35.12C140.171 35.12 140.081 35.0877 140.042 35.0232C139.912 34.3652 139.699 33.8169 139.401 33.3781C139.103 32.9394 138.714 32.7201 138.235 32.7201H135.826V42.3584C135.826 42.6423 135.826 42.9067 135.826 43.1519C135.838 43.3971 135.871 43.5971 135.923 43.7519C135.949 43.8163 136.052 43.8744 136.234 43.9261C136.415 43.9778 136.603 44.0165 136.797 44.0422C137.004 44.0552 137.147 44.0616 137.225 44.0616C137.263 44.1132 137.283 44.2034 137.283 44.3325C137.296 44.4616 137.276 44.5518 137.225 44.6035C136.836 44.5777 136.46 44.5584 136.098 44.5454C135.748 44.5197 135.385 44.5067 135.01 44.5067C134.647 44.5067 134.278 44.5197 133.902 44.5454C133.526 44.5584 133.144 44.5777 132.756 44.6035C132.704 44.5518 132.678 44.4616 132.678 44.3325C132.691 44.2034 132.717 44.1132 132.756 44.0616C132.833 44.0616 132.976 44.0552 133.183 44.0422C133.39 44.0165 133.585 43.9778 133.766 43.9261C133.96 43.8744 134.064 43.8163 134.077 43.7519C134.129 43.5971 134.155 43.3971 134.155 43.1519C134.168 42.9067 134.174 42.6423 134.174 42.3584V32.7201H131.726C131.247 32.7201 130.858 32.9394 130.56 33.3781C130.262 33.8169 130.042 34.3652 129.9 35.0232C129.861 35.0877 129.77 35.12 129.628 35.12C129.537 35.133 129.459 35.12 129.394 35.0813C129.343 35.0426 129.304 35.0103 129.278 34.9845C129.381 34.4813 129.472 33.9588 129.55 33.4168C129.628 32.8749 129.699 32.3137 129.764 31.733C129.828 31.7073 129.906 31.7073 129.997 31.733C130.087 31.746 130.159 31.7654 130.21 31.7911C130.327 31.8428 130.489 31.9008 130.696 31.9653C130.916 32.017 131.104 32.0427 131.26 32.0427H138.682Z" fill="#071A30"/>
<path d="M51.6094 52.9065C51.6094 52.6587 51.6521 52.413 51.7376 52.1691C51.827 51.9214 51.9552 51.7007 52.1223 51.5072C52.2894 51.3136 52.4954 51.1569 52.7402 51.0369C52.985 50.913 53.2628 50.8511 53.5737 50.8511C53.9429 50.8511 54.2577 50.9343 54.518 51.1007C54.7823 51.2672 54.9766 51.484 55.1009 51.751L54.7803 51.9485C54.7143 51.813 54.6326 51.6988 54.5355 51.6059C54.4422 51.513 54.3412 51.4375 54.2324 51.3794C54.1236 51.3214 54.0109 51.2807 53.8943 51.2575C53.7777 51.2304 53.6631 51.2169 53.5504 51.2169C53.3017 51.2169 53.0821 51.2672 52.8917 51.3678C52.7013 51.4685 52.5401 51.6001 52.4079 51.7627C52.2797 51.9252 52.1826 52.1091 52.1165 52.3142C52.0504 52.5155 52.0174 52.7207 52.0174 52.9297C52.0174 53.1581 52.0563 53.3768 52.134 53.5858C52.2156 53.7948 52.3244 53.9806 52.4604 54.1432C52.6003 54.3019 52.7635 54.4296 52.95 54.5264C53.1404 54.6193 53.3464 54.6658 53.5679 54.6658C53.6845 54.6658 53.803 54.6522 53.9235 54.6251C54.0478 54.5942 54.1663 54.5477 54.279 54.4858C54.3956 54.42 54.5025 54.3406 54.5996 54.2477C54.6968 54.1509 54.7784 54.0348 54.8444 53.8993L55.1825 54.0735C55.1164 54.2284 55.0232 54.3658 54.9027 54.4858C54.7823 54.6019 54.6482 54.7006 54.5005 54.7819C54.3529 54.8632 54.1955 54.9251 54.0284 54.9677C53.8652 55.0103 53.7039 55.0316 53.5446 55.0316C53.2609 55.0316 53.0005 54.9696 52.7635 54.8458C52.5265 54.7219 52.3224 54.5613 52.1515 54.3638C51.9805 54.1626 51.8464 53.9361 51.7493 53.6845C51.656 53.429 51.6094 53.1697 51.6094 52.9065Z" fill="#071A30"/>
<path d="M61.7199 54.6369V54.9969H58.9395V50.8745H61.6674V51.2345H59.3475V52.7209H61.3701V53.0635H59.3475V54.6369H61.7199Z" fill="#071A30"/>
<path d="M65.9598 51.6293V54.9969H65.5518V50.8745H65.8665L68.6061 54.306V50.8803H69.0141V54.9969H68.6586L65.9598 51.6293Z" fill="#071A30"/>
<path d="M76.0518 51.2345H74.5771V54.9969H74.1691V51.2345H72.6943V50.8745H76.0518V51.2345Z" fill="#071A30"/>
<path d="M79.7319 54.9969V50.8745H81.4806C81.6594 50.8745 81.8226 50.9132 81.9702 50.9906C82.1218 51.0642 82.252 51.1629 82.3608 51.2867C82.4696 51.4067 82.5531 51.5442 82.6114 51.699C82.6736 51.8538 82.7047 52.0106 82.7047 52.1693C82.7047 52.3203 82.6814 52.4654 82.6347 52.6048C82.592 52.7402 82.5298 52.8641 82.4482 52.9764C82.3705 53.0847 82.2753 53.1776 82.1626 53.2551C82.0499 53.3286 81.9236 53.3789 81.7837 53.406L82.7979 54.9969H82.3375L81.364 53.4757H80.14V54.9969H79.7319ZM80.14 53.1157H81.4923C81.6127 53.1157 81.7215 53.0905 81.8187 53.0402C81.9197 52.986 82.0052 52.9144 82.0752 52.8254C82.1451 52.7364 82.1995 52.6357 82.2384 52.5235C82.2772 52.4112 82.2967 52.2932 82.2967 52.1693C82.2967 52.0454 82.2733 51.9274 82.2267 51.8151C82.184 51.699 82.1237 51.5984 82.046 51.5132C81.9722 51.428 81.8828 51.3603 81.7779 51.31C81.6768 51.2597 81.57 51.2345 81.4573 51.2345H80.14V53.1157Z" fill="#071A30"/>
<path d="M89.381 54.6369V54.9969H86.6006V50.8745H89.3285V51.2345H87.0086V52.7209H89.0312V53.0635H87.0086V54.6369H89.381Z" fill="#071A30"/>
<path fill-rule="evenodd" clip-rule="evenodd" d="M79.5826 0.669933H61.5259V24.8042H79.5826V0.669933ZM60.8848 0.03125V25.4429H80.2238V0.03125H60.8848Z" fill="#134278"/>
</g>
<defs>
<clipPath id="clip0">
<rect width="141" height="55" fill="white"/>
</clipPath>
</defs>
</svg>
