<svg width="18" height="14" viewBox="0 0 18 14" fill="none" xmlns="http://www.w3.org/2000/svg">
<path d="M15.6665 0.333008H2.33317C1.4165 0.333008 0.674837 1.08301 0.674837 1.99967L0.666504 11.9997C0.666504 12.9163 1.4165 13.6663 2.33317 13.6663H15.6665C16.5832 13.6663 17.3332 12.9163 17.3332 11.9997V1.99967C17.3332 1.08301 16.5832 0.333008 15.6665 0.333008ZM15.3332 3.87467L9.4415 7.55801C9.17484 7.72467 8.82484 7.72467 8.55817 7.55801L2.6665 3.87467C2.58294 3.82777 2.50977 3.76439 2.45141 3.68839C2.39305 3.61238 2.35072 3.52532 2.32698 3.43248C2.30324 3.33964 2.29859 3.24295 2.3133 3.14826C2.32801 3.05357 2.36178 2.96285 2.41257 2.88159C2.46336 2.80033 2.53011 2.73022 2.60878 2.6755C2.68744 2.62079 2.7764 2.5826 2.87025 2.56326C2.9641 2.54391 3.06091 2.54381 3.1548 2.56296C3.24869 2.58212 3.33772 2.62012 3.4165 2.67467L8.99984 6.16634L14.5832 2.67467C14.662 2.62012 14.751 2.58212 14.8449 2.56296C14.9388 2.54381 15.0356 2.54391 15.1294 2.56326C15.2233 2.5826 15.3122 2.62079 15.3909 2.6755C15.4696 2.73022 15.5363 2.80033 15.5871 2.88159C15.6379 2.96285 15.6717 3.05357 15.6864 3.14826C15.7011 3.24295 15.6964 3.33964 15.6727 3.43248C15.649 3.52532 15.6066 3.61238 15.5483 3.68839C15.4899 3.76439 15.4167 3.82777 15.3332 3.87467Z" fill="#D1D1D1"/>
</svg>
