<svg width="26" height="24" viewBox="0 0 26 24" fill="none" xmlns="http://www.w3.org/2000/svg">
<path d="M12.8226 9.49316C15.2293 9.49316 17.1803 7.51517 17.1803 5.0752C17.1803 2.63522 15.2293 0.657227 12.8226 0.657227C10.4159 0.657227 8.46484 2.63522 8.46484 5.0752C8.46484 7.51517 10.4159 9.49316 12.8226 9.49316Z" fill="white"/>
<path d="M21.6382 9.49316C23.1597 9.49316 24.3931 8.24271 24.3931 6.70019C24.3931 5.15768 23.1597 3.90723 21.6382 3.90723C20.1167 3.90723 18.8833 5.15768 18.8833 6.70019C18.8833 8.24271 20.1167 9.49316 21.6382 9.49316Z" fill="white"/>
<path d="M4.00732 9.49316C5.5288 9.49316 6.76221 8.24271 6.76221 6.70019C6.76221 5.15768 5.5288 3.90723 4.00732 3.90723C2.48584 3.90723 1.25244 5.15768 1.25244 6.70019C1.25244 8.24271 2.48584 9.49316 4.00732 9.49316Z" fill="white"/>
<path d="M6.72141 12.0011C5.63699 11.1003 4.6549 11.2196 3.40103 11.2196C1.5257 11.2196 0 12.7572 0 14.6468V20.1926C0 21.0133 0.660671 21.6805 1.47311 21.6805C4.98063 21.6805 4.55808 21.7449 4.55808 21.5272C4.55808 17.5974 4.09897 14.7155 6.72141 12.0011Z" fill="white"/>
<path d="M14.0155 11.2401C11.8254 11.0549 9.92176 11.2422 8.2798 12.6163C5.53208 14.8476 6.06086 17.852 6.06086 21.5274C6.06086 22.4998 6.84125 23.3057 7.81497 23.3057C18.3878 23.3057 18.8086 23.6515 19.4356 22.2439C19.6412 21.7679 19.5848 21.9191 19.5848 17.3653C19.5848 13.7484 16.4957 11.2401 14.0155 11.2401Z" fill="white"/>
<path d="M22.2442 11.2195C20.9835 11.2195 20.0068 11.1014 18.9238 12.001C21.5267 14.6952 21.0872 17.3805 21.0872 21.527C21.0872 21.7461 20.7364 21.6804 24.1195 21.6804C24.961 21.6804 25.6452 20.9893 25.6452 20.1397V14.6467C25.6452 12.7571 24.1195 11.2195 22.2442 11.2195Z" fill="white"/>
</svg>
