<svg width="26" height="30" viewBox="0 0 26 30" fill="none" xmlns="http://www.w3.org/2000/svg">
<path d="M25.6997 25.4901C25.6997 25.4901 22.37 19.7674 21.7727 18.741C22.4522 18.5337 23.1761 18.3506 23.4769 17.8313C23.9782 16.9659 23.0859 15.5463 23.3202 14.6188C23.5616 13.6642 24.9863 12.8381 24.9863 11.8678C24.9863 10.9224 23.5133 9.81794 23.2718 8.86891C23.0359 7.94152 23.9255 6.5204 23.4226 5.65609C22.9197 4.7917 21.2447 4.86272 20.5552 4.19922C19.8457 3.51643 19.8479 1.84585 18.9922 1.38828C18.133 0.929008 16.7366 1.8572 15.7826 1.63734C14.8395 1.41998 13.9969 0 13.0118 0C12.0121 0 10.422 1.61074 10.1726 1.66871C9.21914 1.89036 7.82097 0.964436 6.96265 1.42566C6.10775 1.88477 6.11301 3.55551 5.40485 4.23943C4.71646 4.90415 3.04135 4.83621 2.54 5.70157C2.03873 6.56678 2.93101 7.98603 2.69679 8.91406C2.46192 9.84445 0.987542 10.7872 0.987542 11.8632C0.987542 12.8336 2.41587 13.657 2.65869 14.6112C2.89469 15.5386 2.00508 16.9595 2.50797 17.8242C2.78175 18.2948 3.40293 18.488 4.02329 18.6737C4.09569 18.6954 4.23262 18.7764 4.13988 18.9115C3.71546 19.6441 0.299481 25.5396 0.299481 25.5396C0.0277269 26.0085 0.248406 26.4104 0.789726 26.4332L3.43941 26.5437C3.98073 26.5665 4.65979 26.9599 4.94874 27.4182L6.36264 29.6618C6.65158 30.1201 7.11004 30.1115 7.38172 29.6426C7.38172 29.6426 11.3378 22.8126 11.3394 22.8107C11.4188 22.7179 11.4986 22.737 11.5368 22.7694C11.9696 23.138 12.573 23.5056 13.0766 23.5056C13.5705 23.5056 14.0279 23.1595 14.4802 22.7735C14.5171 22.7422 14.6066 22.6779 14.6721 22.8113C14.6732 22.8134 18.6249 29.6061 18.6249 29.6061C18.8973 30.0743 19.3559 30.0823 19.6439 29.6234L21.0538 27.3771C21.342 26.9185 22.0203 26.5236 22.5616 26.5L25.2111 26.3846C25.7521 26.3608 25.9721 25.9583 25.6997 25.4901ZM17.3907 19.3464C14.4611 21.0508 10.9446 20.8681 8.25867 19.1739C4.32302 16.653 3.02805 11.4381 5.39398 7.35456C7.78692 3.22392 13.0471 1.7664 17.215 4.03635C17.2369 4.04827 17.2585 4.06059 17.2802 4.07275C17.3111 4.08986 17.3419 4.1072 17.3727 4.12472C18.6585 4.86604 19.7735 5.94195 20.5719 7.31426C23.012 11.5086 21.585 16.9063 17.3907 19.3464Z" fill="white"/>
<path d="M16.7208 5.35896C16.7086 5.35191 16.6963 5.34534 16.6841 5.33837C14.4577 4.04981 11.62 3.9556 9.24179 5.33926C5.71255 7.3925 4.51163 11.9341 6.56486 15.4632C7.19139 16.5402 8.04995 17.3999 9.04049 18.0169C9.12472 18.0702 9.20993 18.1227 9.297 18.1731C12.83 20.2199 17.3692 19.0108 19.416 15.4779C21.4626 11.9449 20.2538 7.40579 16.7208 5.35896ZM17.6046 11.1346L16.3676 12.3404C15.9844 12.7138 15.7449 13.451 15.8355 13.9783L16.1275 15.6809C16.218 16.2083 15.9046 16.436 15.4309 16.1871L13.9018 15.3831C13.4282 15.1342 12.6532 15.1342 12.1796 15.3831L10.6506 16.1871C10.177 16.436 9.86345 16.2083 9.95393 15.6809L10.246 13.9783C10.3364 13.451 10.0969 12.7138 9.71379 12.3404L8.47679 11.1346C8.09356 10.7612 8.21339 10.3927 8.74287 10.3156L10.4524 10.0672C10.9818 9.9903 11.6089 9.53475 11.8457 9.05497L12.6102 7.50592C12.847 7.02613 13.2345 7.02613 13.4713 7.50592L14.2358 9.05497C14.4727 9.53475 15.0996 9.9903 15.6292 10.0672L17.3386 10.3156C17.868 10.3927 17.9878 10.7612 17.6046 11.1346Z" fill="white"/>
</svg>
