<svg width="26" height="26" viewBox="0 0 26 26" fill="none" xmlns="http://www.w3.org/2000/svg">
<path d="M5.99982 10.6528H2.38483C2.05464 10.6537 1.73825 10.7892 1.50508 11.0296C1.27192 11.27 1.14102 11.5957 1.14111 11.9353V24.0147C1.14102 24.3543 1.27192 24.68 1.50508 24.9204C1.73825 25.1608 2.05464 25.2963 2.38483 25.2972H5.99982C6.33035 25.2964 6.64715 25.1611 6.88088 24.9207C7.1146 24.6804 7.24623 24.3546 7.24695 24.0147V11.9353C7.24623 11.5954 7.1146 11.2696 6.88088 11.0293C6.64715 10.7889 6.33035 10.6536 5.99982 10.6528Z" fill="white"/>
<path d="M23.6065 14.8589C23.6064 14.2792 23.3828 13.7233 22.9846 13.3129C22.9507 13.2751 22.9142 13.2399 22.8753 13.2075C23.3162 13.0154 23.6791 12.6725 23.9025 12.237C24.1258 11.8014 24.1961 11.2998 24.1012 10.8172C24.0064 10.3345 23.7523 9.9003 23.382 9.58808C23.0117 9.27586 22.5478 9.10477 22.0689 9.10374H14.6545C14.6955 9.02996 14.733 8.9632 14.7672 8.89644C14.9806 8.54226 15.1504 8.16224 15.2729 7.76509C15.4363 7.21456 15.5361 6.64613 15.5702 6.07158C15.6175 5.24148 15.5028 4.41004 15.2329 3.62621C14.9629 2.84238 14.5432 2.12201 13.9984 1.50753C13.7932 1.2678 13.5431 1.07301 13.2631 0.934774C12.9831 0.796542 12.6789 0.717695 12.3686 0.702935C11.9448 0.6862 11.5304 0.83474 11.2086 1.11881C10.8867 1.40287 10.6811 1.80149 10.6329 2.23483C10.63 2.25105 10.6289 2.26754 10.6295 2.28402V5.36185L8.64771 10.5267C8.48542 10.9468 8.24123 11.3282 7.93018 11.6475V23.5513C8.41936 23.6898 8.91706 23.7943 9.41991 23.864C9.60679 23.8897 9.79513 23.9026 9.98368 23.9027H20.0325C20.5292 23.902 21.0055 23.7 21.3582 23.3405C21.5318 23.1619 21.6695 22.9499 21.7633 22.7166C21.8571 22.4833 21.9052 22.2332 21.9049 21.9808C21.9061 21.5148 21.7407 21.0647 21.4402 20.7159C21.836 20.6303 22.2003 20.4316 22.491 20.1425C22.7817 19.8534 22.9871 19.4857 23.0835 19.0818C23.1799 18.6779 23.1634 18.2542 23.0359 17.8596C22.9084 17.4649 22.6751 17.1153 22.3628 16.851C22.7336 16.676 23.0479 16.3953 23.2683 16.0422C23.4888 15.6891 23.6061 15.2785 23.6065 14.8589Z" fill="white"/>
</svg>
