<svg width="30" height="30" viewBox="0 0 30 30" fill="none" xmlns="http://www.w3.org/2000/svg">
<path d="M8.99072 14.0869C8.99072 17.6346 11.8667 20.5107 15.4145 20.5107C18.9623 20.5107 21.8383 17.6346 21.8383 14.0869C21.8383 10.5391 18.9623 7.66309 15.4145 7.66309C11.8685 7.66706 8.9947 10.5408 8.99072 14.0869ZM15.4145 14.4928C14.3485 14.4988 13.4452 13.7093 13.3089 12.652C13.1725 11.5949 13.8457 10.6017 14.8784 10.3371V9.79408C14.8784 9.54814 15.0776 9.3489 15.3236 9.3489C15.5695 9.3489 15.7688 9.54814 15.7688 9.79408V10.3101C16.7789 10.481 17.5162 11.3592 17.5097 12.3839C17.5097 12.6269 17.3127 12.8239 17.0698 12.8239C16.8268 12.8239 16.6298 12.6269 16.6298 12.3839C16.6291 11.7114 16.0835 11.1669 15.411 11.1676C14.7385 11.1684 14.194 11.7142 14.195 12.3866C14.1957 13.0589 14.7415 13.6034 15.414 13.6024C16.5044 13.6087 17.4099 14.4454 17.502 15.532C17.5942 16.6183 16.8425 17.5956 15.7688 17.7854V18.3161C15.7688 18.562 15.5695 18.7612 15.3236 18.7612C15.0776 18.7612 14.8784 18.562 14.8784 18.3161V17.7581C13.9481 17.5124 13.2979 16.6737 13.2917 15.7116C13.2917 15.4629 13.4934 15.2612 13.7421 15.2612C13.9908 15.2612 14.1925 15.4629 14.1925 15.7116C14.194 16.3334 14.6625 16.8548 15.2806 16.9227C15.3035 16.9189 15.3268 16.9172 15.3502 16.9169C15.3837 16.9169 15.417 16.9209 15.4498 16.9284C16.1176 16.912 16.6474 16.361 16.6378 15.6932C16.6281 15.0252 16.0823 14.4898 15.4145 14.4928Z" fill="white"/>
<path d="M25.7236 23.5732C25.7204 23.575 25.7169 23.5767 25.7131 23.5784L21.5806 25.5308C21.6251 25.7596 21.6444 25.9924 21.6382 26.2254C21.6318 26.4664 21.4345 26.6584 21.1935 26.6584C21.1893 26.6584 21.1851 26.6584 21.1809 26.6584L15.1327 26.492C14.8868 26.4853 14.693 26.2806 14.6997 26.0346C14.7064 25.7887 14.9114 25.5949 15.1571 25.6016L20.7166 25.7546C20.5322 24.6772 19.6136 23.8793 18.521 23.8475L14.8418 23.7464C14.1152 23.7255 13.4027 23.5414 12.757 23.2078L12.3826 23.014C10.544 22.0561 8.32858 22.1808 6.60923 23.3392L6.46191 28.6915L7.09416 28.3529C7.72242 28.0151 8.45752 27.9346 9.14416 28.1286L15.3881 29.8812C16.5915 30.1277 17.842 29.9881 18.9614 29.4818L27.6119 23.8862C27.1182 23.3809 26.3538 23.254 25.7236 23.5732Z" fill="white"/>
<path d="M2.39893 29.6215L2.61829 21.6582L5.76286 21.7449L5.5435 29.7082L2.39893 29.6215Z" fill="white"/>
<path d="M15.8322 5.27854V0.445178C15.8322 0.199237 15.633 0 15.3871 0C15.1411 0 14.9419 0.199237 14.9419 0.445178V5.27854C14.9419 5.52449 15.1411 5.72372 15.3871 5.72372C15.633 5.72372 15.8322 5.52449 15.8322 5.27854Z" fill="white"/>
<path d="M19.6482 5.27861V2.98912C19.6482 2.74318 19.4489 2.54395 19.203 2.54395C18.9571 2.54395 18.7578 2.74318 18.7578 2.98912V5.27861C18.7578 5.52456 18.9571 5.72379 19.203 5.72379C19.4489 5.72379 19.6482 5.52456 19.6482 5.27861Z" fill="white"/>
<path d="M12.0163 5.27861V2.98912C12.0163 2.74318 11.8171 2.54395 11.5712 2.54395C11.3252 2.54395 11.126 2.74318 11.126 2.98912V5.27861C11.126 5.52456 11.3252 5.72379 11.5712 5.72379C11.8171 5.72379 12.0163 5.52456 12.0163 5.27861Z" fill="white"/>
</svg>
