<svg width="24" height="26" viewBox="0 0 24 26" fill="none" xmlns="http://www.w3.org/2000/svg">
<path d="M23.2915 3.63881C23.2448 3.30359 23.0036 3.02784 22.6776 2.93721L12.2277 0.031098C12.0787 -0.010366 11.9214 -0.010366 11.7723 0.031098L1.32245 2.93721C0.996398 3.02784 0.755204 3.30347 0.708528 3.63881C0.647918 4.07464 -0.734783 14.3722 2.81175 19.495C6.3541 24.6116 11.5798 25.9228 11.8005 25.9761C11.8661 25.992 11.9329 25.9998 12 25.9998C12.0671 25.9998 12.1339 25.9919 12.1995 25.9761C12.4203 25.9228 17.646 24.6116 21.1883 19.495C24.7348 14.3723 23.3521 4.07475 23.2915 3.63881ZM18.7388 9.65064L11.611 16.7785C11.4451 16.9444 11.2276 17.0274 11.0102 17.0274C10.7928 17.0274 10.5753 16.9445 10.4094 16.7785L6.00233 12.3714C5.84293 12.2121 5.75343 11.996 5.75343 11.7706C5.75343 11.5453 5.84305 11.3291 6.00233 11.1699L6.87738 10.2948C7.20921 9.9631 7.74722 9.96298 8.07893 10.2948L11.0102 13.2261L16.6622 7.57393C16.8215 7.41453 17.0377 7.32503 17.263 7.32503C17.4883 7.32503 17.7045 7.41453 17.8638 7.57393L18.7388 8.44898C19.0706 8.78081 19.0706 9.31882 18.7388 9.65064Z" fill="white"/>
</svg>
