<svg width="61" height="61" viewBox="0 0 61 61" fill="none" xmlns="http://www.w3.org/2000/svg">
<path d="M56.4839 35.6999L55.9125 35.5855L50.5413 39.4711C50.5413 39.4711 49.2842 40.3854 47.3415 37.8711C45.9701 36.0426 45.9701 35.1284 45.9701 34.8998L51.1128 30.6714L51.2271 30.3285C51.3415 29.8715 51.3415 29.3001 50.9986 28.7285C50.5415 28.1571 49.8558 27.8143 48.8272 27.7001C46.9987 27.4715 42.7703 28.8429 42.3132 28.9572C42.0847 29.0715 39.1134 29.8715 37.8562 33.1856C37.7419 33.5285 37.6277 33.8713 37.5134 34.2141C36.942 36.2711 36.3706 37.8711 27.9137 40.8424C17.7427 44.4995 9.28595 48.6136 9.17163 48.6136L8.71455 48.8421L8.60023 49.4136C8.4859 49.6422 7.45744 55.1277 11.8001 57.7561L12.2571 58.099L40.1417 46.7852C40.2559 46.7852 41.9702 46.0994 46.3129 47.6994C50.9984 49.4136 54.1983 46.6708 55.2268 44.9567C55.4553 44.4996 57.3982 41.0711 57.8553 39.1284C58.4268 36.9569 57.1696 35.9284 56.4839 35.6999ZM55.684 38.7854C55.3411 40.1568 53.8555 43.0138 53.2841 43.9281C53.0555 44.2709 50.9985 47.1279 47.1129 45.6423C41.856 43.5852 39.5703 44.6137 39.3418 44.728L12.6 55.4704C10.6572 53.9848 10.6572 51.5849 10.7715 50.4421C12.8285 49.5278 20.1425 46.2137 28.7136 43.1281C37.6275 39.9283 38.8846 37.9855 39.7989 35.0141C39.9132 34.6713 40.0274 34.4427 40.1417 34.0999C40.9417 31.8143 42.8845 31.2429 42.9987 31.2429C44.4844 30.9 46.9985 30.2143 48.2556 30.1001L44.2559 33.2998C43.9131 33.6427 42.4274 35.2426 45.5131 39.3567C48.0273 42.785 50.77 42.2136 51.9129 41.4137L55.6841 38.6709V38.7854H55.684Z" fill="#163185"/>
<path d="M20.2567 11.7007C15.5712 11.7007 11.7998 15.4719 11.7998 20.1575C11.7998 24.843 15.571 28.6143 20.2567 28.6143C24.9422 28.6143 28.7134 24.843 28.7134 20.1575C28.7135 15.4719 24.9423 11.7007 20.2567 11.7007ZM20.2567 26.4429C16.8283 26.4429 14.0855 23.7001 14.0855 20.2717C14.0855 16.8433 16.8283 14.1006 20.2567 14.1006C23.685 14.1006 26.4278 16.8434 26.4278 20.2717C26.4279 23.7002 23.6852 26.4429 20.2567 26.4429Z" fill="#163185"/>
<path d="M37.3992 24.1575V16.0435H32.7137C32.4852 15.3578 32.2566 14.6722 31.9138 14.1006L35.2279 10.7865L29.5139 5.07238L26.1997 8.38656C25.514 8.04369 24.9426 7.81516 24.2568 7.58662V2.90112H16.1428V7.58662C15.4571 7.81516 14.7715 8.04381 14.2 8.38656L10.8859 5.0725L5.17187 10.7866L8.48604 14.1008C8.14318 14.7865 7.91464 15.3579 7.6861 16.0436H3.00049V24.1576H7.68599C7.91452 24.8433 8.14318 25.5289 8.48592 26.1004L5.17175 29.4146L10.8858 35.1287L14.2 31.8145C14.8857 32.1574 15.4571 32.3859 16.1428 32.6145V37.2999H24.2568V32.6145C24.9426 32.3859 25.6282 32.1573 26.1997 31.8145L29.5139 35.1287L35.2279 29.4146L31.9138 26.1004C32.2566 25.4147 32.4852 24.8433 32.7137 24.1576H37.3992V24.1575ZM32.2565 29.4144L29.7424 31.9286L26.7711 28.9573L25.9711 29.4144C25.0569 29.9858 24.0283 30.4428 22.9998 30.6715L22.0856 30.9V35.0141H18.5429V30.9L17.6286 30.6715C16.6002 30.3286 15.5716 29.9858 14.6573 29.4144L13.8574 28.9573L10.8861 31.9286L8.37171 29.4144L11.343 26.4431L10.8859 25.6431C10.3146 24.7289 9.85737 23.7003 9.62883 22.6718L9.40029 21.7576H5.28608V18.2149H9.40018L9.62871 17.3006C9.97158 16.2721 10.3144 15.2435 10.8858 14.3293L11.3429 13.5294L8.37159 10.558L10.8858 8.04381L13.8571 11.0151L14.6571 10.558C15.5713 9.98665 16.5999 9.52946 17.6284 9.30093L18.5426 9.07239V4.95817H22.0854V9.07228L22.9996 9.30081C24.0282 9.64367 25.0567 9.98654 25.9709 10.5579L26.7708 11.015L29.7422 8.04369L32.2563 10.5579L29.285 13.5292L29.742 14.3292C30.3134 15.2434 30.7706 16.272 30.9992 17.3005L31.2277 18.2147H35.3421V21.7574H31.228L30.9995 22.6717C30.6567 23.7003 30.3138 24.7288 29.7424 25.643L29.2853 26.4429L32.2565 29.4144Z" fill="#163185"/>
</svg>
