<svg width="61" height="43" viewBox="0 0 61 43" fill="none" xmlns="http://www.w3.org/2000/svg">
<path d="M49.8707 31.1139C48.3802 31.1139 46.9642 31.6977 45.8959 32.7535C44.8277 33.8217 44.2315 35.2128 44.2315 36.7034C44.2315 38.1939 44.8153 39.5851 45.8959 40.6533C46.9766 41.7091 48.3802 42.2929 49.8707 42.2929C52.9263 42.2929 55.4105 39.7838 55.4105 36.7034C55.4105 33.6229 52.9263 31.1139 49.8707 31.1139ZM49.8707 39.8086C48.1566 39.8086 46.7157 38.3926 46.7157 36.7034C46.7157 35.0141 48.1566 33.5981 49.8707 33.5981C51.56 33.5981 52.9263 34.9893 52.9263 36.7034C52.9263 38.4175 51.56 39.8086 49.8707 39.8086ZM51.3115 12.4946C51.088 12.2835 50.7899 12.1717 50.4793 12.1717H44.1073C43.4241 12.1717 42.8652 12.7306 42.8652 13.4138V23.5991C42.8652 24.2823 43.4241 24.8412 44.1073 24.8412H54.2181C54.9012 24.8412 55.4602 24.2823 55.4602 23.5991V16.7799C55.4602 16.4321 55.3111 16.0968 55.0503 15.8608L51.3115 12.4946ZM52.976 22.357H45.3494V14.6435H49.9949L52.976 17.3265V22.357ZM19.5384 31.1139C18.0479 31.1139 16.6318 31.6977 15.5636 32.7535C14.4954 33.8217 13.8992 35.2128 13.8992 36.7034C13.8992 38.1939 14.483 39.5851 15.5636 40.6533C16.6443 41.7091 18.0479 42.2929 19.5384 42.2929C22.594 42.2929 25.0782 39.7838 25.0782 36.7034C25.0782 33.6229 22.594 31.1139 19.5384 31.1139ZM19.5384 39.8086C17.8243 39.8086 16.3834 38.3926 16.3834 36.7034C16.3834 35.0141 17.8243 33.5981 19.5384 33.5981C21.2277 33.5981 22.594 34.9893 22.594 36.7034C22.594 38.4175 21.2277 39.8086 19.5384 39.8086ZM11.2535 32.6417H8.75687V29.3377C8.75687 28.6545 8.19792 28.0955 7.51476 28.0955C6.8316 28.0955 6.27265 28.6545 6.27265 29.3377V33.8838C6.27265 34.5669 6.8316 35.1259 7.51476 35.1259H11.2535C11.9367 35.1259 12.4956 34.5669 12.4956 33.8838C12.4956 33.2006 11.9367 32.6417 11.2535 32.6417ZM17.551 25.8722C17.551 25.189 16.9921 24.6301 16.3089 24.6301H1.24211C0.558949 24.6301 0 25.189 0 25.8722C0 26.5553 0.558949 27.1143 1.24211 27.1143H16.3089C16.9921 27.1143 17.551 26.5677 17.551 25.8722ZM3.76359 21.3882L18.8304 21.4751C19.5135 21.4751 20.0725 20.9286 20.0849 20.2454C20.0973 19.5498 19.5384 18.9909 18.8552 18.9909L3.78843 18.9039C3.77601 18.9039 3.77601 18.9039 3.77601 18.9039C3.09285 18.9039 2.5339 19.4505 2.5339 20.1336C2.52148 20.8292 3.08043 21.3882 3.76359 21.3882ZM6.2975 15.749H21.3643C22.0474 15.749 22.6064 15.19 22.6064 14.5069C22.6064 13.8237 22.0474 13.2648 21.3643 13.2648H6.2975C5.61434 13.2648 5.05539 13.8237 5.05539 14.5069C5.05539 15.19 5.61434 15.749 6.2975 15.749ZM60.5404 14.0721L51.6469 6.70642C51.4233 6.5201 51.1501 6.42074 50.852 6.42074H40.3934V1.94914C40.3934 1.26598 39.8345 0.707031 39.1513 0.707031H7.51476C6.8316 0.707031 6.27265 1.26598 6.27265 1.94914V11.0414C6.27265 11.7245 6.8316 12.2835 7.51476 12.2835C8.19792 12.2835 8.75687 11.7245 8.75687 11.0414V3.19125H37.9216V32.6417H27.7363C27.0531 32.6417 26.4942 33.2006 26.4942 33.8838C26.4942 34.5669 27.0531 35.1259 27.7363 35.1259H42.9025C43.5856 35.1259 44.1446 34.5669 44.1446 33.8838C44.1446 33.2006 43.5856 32.6417 42.9025 32.6417H40.4058V8.90495H50.4172L58.5158 15.6123L58.4288 32.6168H57.137C56.4539 32.6168 55.8949 33.1758 55.8949 33.8589C55.8949 34.5421 56.4539 35.101 57.137 35.101H59.6585C60.3417 35.101 60.9006 34.5545 60.9006 33.8714L61 15.041C60.9876 14.6683 60.8261 14.3081 60.5404 14.0721Z" fill="#163185"/>
</svg>
