<svg width="61" height="61" viewBox="0 0 61 61" fill="none" xmlns="http://www.w3.org/2000/svg">
<g clip-path="url(#clip0_271:1487)">
<path d="M8.89552 10.1483C6.78994 10.1483 5.08301 11.8552 5.08301 13.9608V24.1275H7.62465V13.9608C7.62465 13.259 8.19366 12.69 8.89552 12.69H39.3956V10.1483H8.89552Z" fill="#163185"/>
<path d="M8.89552 48.2735C8.19366 48.2735 7.62464 47.7045 7.62464 47.0026V34.2942H5.08301V47.0026C5.08301 49.1082 6.78994 50.8151 8.89552 50.8151H21.6039V48.2735H8.89552Z" fill="#163185"/>
<path d="M40.2942 51.5509L9.43061 20.6873C8.93439 20.1912 8.12995 20.1912 7.63361 20.6873L0.372078 27.9489C-0.124026 28.4451 -0.124026 29.2496 0.372078 29.7459L31.2357 60.6094C31.474 60.8478 31.7972 60.9817 32.1341 60.9817C32.4712 60.9816 32.7943 60.8477 33.0326 60.6094L40.2941 53.3479C40.7903 52.8515 40.7903 52.0471 40.2942 51.5509ZM32.1341 57.914L3.06753 28.8474L8.53217 23.3827L37.5988 52.4494L32.1341 57.914Z" fill="#163185"/>
<path d="M55.9166 48.2734H36.854V50.8151H50.8332V57.1692C50.8332 57.8711 51.4022 58.4401 52.1041 58.4401H55.9166C58.724 58.4401 61 56.1643 61 53.3567C61 50.5493 58.724 48.2734 55.9166 48.2734ZM55.9166 55.8985H53.3749V50.8151H55.9166C57.3203 50.8151 58.4582 51.953 58.4582 53.3567C58.4582 54.7606 57.3203 55.8985 55.9166 55.8985Z" fill="#163185"/>
<path d="M55.9167 10.1483H49.5625V12.69H55.9167C57.3204 12.69 58.4583 13.8279 58.4583 15.2316V53.3567H60.9999V15.2316C61 12.4241 58.7241 10.1483 55.9167 10.1483Z" fill="#163185"/>
<path d="M23.2474 35.9372L19.4346 39.75L21.2318 41.5472L25.0446 37.7344L23.2474 35.9372Z" fill="#163185"/>
<path d="M18.1644 30.8537L14.3516 34.6665L16.1488 36.4637L19.9616 32.6509L18.1644 30.8537Z" fill="#163185"/>
<path d="M28.328 41.0205L24.5151 44.8334L26.3123 46.6306L30.1252 42.8177L28.328 41.0205Z" fill="#163185"/>
<path d="M33.4139 46.1065L29.6011 49.9193L31.3983 51.7165L35.2111 47.9037L33.4139 46.1065Z" fill="#163185"/>
<path d="M13.0775 25.7704L9.26465 29.5833L11.0618 31.3804L14.8747 27.5676L13.0775 25.7704Z" fill="#163185"/>
<path d="M54.8163 2.83841L53.06 1.08215C51.5739 -0.336465 49.2352 -0.336465 47.7491 1.08215L28.4248 20.4065C27.9287 20.9027 27.9287 21.7071 28.4248 22.2035L33.695 27.4737C33.9327 27.7129 34.2563 27.847 34.5935 27.846C34.9305 27.8459 35.2536 27.712 35.4919 27.4737L54.8163 8.14924C54.8169 8.14865 54.8175 8.14805 54.8181 8.14745C56.2837 6.68095 56.2829 4.30396 54.8163 2.83841ZM53.0207 6.35104L34.5935 24.7781L31.1203 21.3049L49.5475 2.87903C50.0274 2.42046 50.7832 2.42046 51.2631 2.87903L53.0207 4.6341C53.0208 4.63434 53.021 4.63446 53.0213 4.6347C53.495 5.10876 53.4947 5.87722 53.0207 6.35104Z" fill="#163185"/>
<path d="M34.1852 25.3704L28.7003 27.2017L30.5316 21.7079L28.1169 20.9034L25.4812 28.8093C25.4381 28.9389 25.416 29.0746 25.416 29.2112C25.4161 29.913 25.9853 30.4819 26.6871 30.4817C26.8216 30.4822 26.9554 30.4615 27.0836 30.4207L34.9895 27.7849L34.1852 25.3704Z" fill="#163185"/>
<path d="M46.0316 4.59465L44.2344 6.39185L49.5047 11.6622L51.3019 9.865L46.0316 4.59465Z" fill="#163185"/>
<path d="M45.7501 27.9401H26.6875V30.4817H45.7501V27.9401Z" fill="#163185"/>
<path d="M50.8331 27.9401H48.2915V30.4817H50.8331V27.9401Z" fill="#163185"/>
<path d="M55.9166 27.9401H53.375V30.4817H55.9166V27.9401Z" fill="#163185"/>
</g>
<defs>
<clipPath id="clip0_271:1487">
<rect width="61" height="61" fill="white"/>
</clipPath>
</defs>
</svg>
