<svg width="61" height="61" viewBox="0 0 61 61" fill="none" xmlns="http://www.w3.org/2000/svg">
<path d="M41.9375 31.4531C41.561 31.4531 41.2036 31.5303 40.8738 31.6628C40.545 30.4476 39.4432 29.5469 38.125 29.5469C37.3901 29.5469 36.7258 29.8338 36.2188 30.2903C35.7117 29.8328 35.0474 29.5469 34.3125 29.5469C33.977 29.5469 33.6587 29.6155 33.3594 29.7222V21.5206C37.3225 20.3978 40.2552 17.018 40.8605 12.9816L44.8903 15.1985C42.5275 16.9342 40.9844 19.7249 40.9844 22.875C40.9844 28.1305 45.2601 32.4062 50.5156 32.4062C55.7712 32.4062 60.0469 28.1305 60.0469 22.875C60.0469 17.6195 55.7712 13.3438 50.5156 13.3438C49.2089 13.3438 47.9622 13.6087 46.827 14.0872L40.9548 10.857C40.6517 5.34703 36.0853 0.953125 30.5 0.953125C24.9147 0.953125 20.3483 5.34703 20.0452 10.858L14.173 14.0872C13.0378 13.6087 11.7921 13.3438 10.4844 13.3438C5.22884 13.3438 0.953125 17.6195 0.953125 22.875C0.953125 28.1305 5.22884 32.4062 10.4844 32.4062C15.7399 32.4062 20.0156 28.1305 20.0156 22.875C20.0156 19.724 18.4725 16.9342 16.1088 15.1976L20.1395 12.9806C20.7448 17.0209 23.6756 20.3988 27.6416 21.5216V39.0905C27.6416 39.5242 27.5415 39.9588 27.3499 40.3477L26.5503 36.3503C25.9774 33.489 23.444 31.4121 20.5265 31.4121C19.195 31.4121 18.1103 32.4968 18.1103 33.8283C18.1103 34.3068 18.2504 34.77 18.5164 35.1684L19.4971 36.64C19.8603 37.1843 20.0947 37.8152 20.1757 38.4643L20.8353 43.738C20.944 44.6177 21.2223 45.4536 21.6331 46.1656L24.7812 52.6411V54.3281H22.875V60.0469H43.8438V54.3281H41.9375V52.7393L43.4625 50.7062C44.3232 49.5596 44.7969 48.1385 44.7969 46.7031V34.3125C44.7969 32.736 43.514 31.4531 41.9375 31.4531ZM50.5156 30.5C48.801 30.5 47.2226 29.9243 45.9482 28.9664C47.0205 27.5444 48.7075 26.6875 50.5156 26.6875C52.3237 26.6875 54.0107 27.5444 55.083 28.9664C53.8087 29.9243 52.2303 30.5 50.5156 30.5ZM47.6562 21.9219C47.6562 20.3454 48.9392 19.0625 50.5156 19.0625C52.0921 19.0625 53.375 20.3454 53.375 21.9219C53.375 23.4983 52.0921 24.7812 50.5156 24.7812C48.9392 24.7812 47.6562 23.4983 47.6562 21.9219ZM50.5156 15.25C54.7199 15.25 58.1406 18.6708 58.1406 22.875C58.1406 24.6793 57.5077 26.3377 56.4555 27.6444C55.7006 26.7047 54.7437 25.9641 53.6619 25.4732C54.6474 24.5992 55.2812 23.3392 55.2812 21.9219C55.2812 19.2941 53.1434 17.1562 50.5156 17.1562C47.8879 17.1562 45.75 19.2941 45.75 21.9219C45.75 23.3392 46.3838 24.5992 47.3694 25.4732C46.2876 25.965 45.3306 26.7047 44.5758 27.6444C43.5235 26.3377 42.8906 24.6793 42.8906 22.875C42.8906 18.6708 46.3114 15.25 50.5156 15.25ZM10.4844 30.5C8.7697 30.5 7.19133 29.9243 5.917 28.9664C6.98927 27.5444 8.6763 26.6875 10.4844 26.6875C12.2925 26.6875 13.9795 27.5444 15.0518 28.9664C13.7774 29.9243 12.199 30.5 10.4844 30.5ZM7.625 21.9219C7.625 20.3454 8.90791 19.0625 10.4844 19.0625C12.0608 19.0625 13.3438 20.3454 13.3438 21.9219C13.3438 23.4983 12.0608 24.7812 10.4844 24.7812C8.90791 24.7812 7.625 23.4983 7.625 21.9219ZM18.1094 22.875C18.1094 24.6793 17.4765 26.3377 16.4243 27.6444C15.6694 26.7047 14.7124 25.9641 13.6306 25.4732C14.6162 24.5992 15.25 23.3392 15.25 21.9219C15.25 19.2941 13.1121 17.1562 10.4844 17.1562C7.85661 17.1562 5.71875 19.2941 5.71875 21.9219C5.71875 23.3392 6.35258 24.5992 7.33811 25.4732C6.25631 25.965 5.29938 26.7047 4.5445 27.6444C3.49225 26.3377 2.85938 24.6793 2.85938 22.875C2.85938 18.6708 6.28014 15.25 10.4844 15.25C14.6886 15.25 18.1094 18.6708 18.1094 22.875ZM21.9219 11.4375C21.9219 6.70714 25.7696 2.85938 30.5 2.85938C35.2304 2.85938 39.0781 6.70714 39.0781 11.4375C39.0781 13.36 38.4252 15.1614 37.3225 16.6149C36.538 15.0336 35.2389 13.7889 33.6587 13.0721C34.6366 12.199 35.2656 10.9428 35.2656 9.53125C35.2656 6.90348 33.1278 4.76562 30.5 4.76562C27.8722 4.76562 25.7344 6.90348 25.7344 9.53125C25.7344 10.9428 26.3634 12.199 27.3413 13.0721C25.7601 13.7889 24.461 15.0346 23.6766 16.6158C22.5738 15.1633 21.9219 13.3619 21.9219 11.4375ZM33.3594 9.53125C33.3594 11.1077 32.0765 12.3906 30.5 12.3906C28.9235 12.3906 27.6406 11.1077 27.6406 9.53125C27.6406 7.95478 28.9235 6.67188 30.5 6.67188C32.0765 6.67188 33.3594 7.95478 33.3594 9.53125ZM25.1263 18.1122C25.925 15.8448 28.0486 14.2969 30.5 14.2969C32.9495 14.2969 35.0731 15.8447 35.8737 18.1103C35.0388 18.7861 34.0761 19.3132 33.0163 19.6382C32.5349 18.7337 31.5942 18.1094 30.5 18.1094C29.4058 18.1094 28.4651 18.7337 27.9847 19.6382C26.9239 19.3132 25.9612 18.787 25.1263 18.1122ZM41.9375 58.1406H24.7812V56.2344H41.9375V58.1406ZM42.8906 46.7031C42.8906 47.7277 42.5523 48.7438 41.9375 49.5625L40.0312 52.1045V54.3281H26.6875V52.2027L23.3173 45.2763C23.0027 44.7282 22.8045 44.1325 22.7263 43.5044L22.0667 38.2298C21.9495 37.2891 21.6102 36.3741 21.0831 35.5849L20.1014 34.1123C20.0452 34.0285 20.0156 33.9303 20.0156 33.8283C20.0156 33.5471 20.2444 33.3193 20.5255 33.3193C22.5376 33.3193 24.2847 34.7519 24.6802 36.7249L25.9059 42.8506H28.2297L29.0436 41.2217C29.3725 40.564 29.5469 39.8263 29.5469 39.0915V20.9688C29.5469 20.4426 29.9739 20.0156 30.5 20.0156C31.0261 20.0156 31.4531 20.4426 31.4531 20.9688V32.4062V36.2188H33.3594V32.4062C33.3594 31.8801 33.7864 31.4531 34.3125 31.4531C34.8386 31.4531 35.2656 31.8801 35.2656 32.4062V36.2188H37.1719V32.4062C37.1719 31.8801 37.5989 31.4531 38.125 31.4531C38.6511 31.4531 39.0781 31.8801 39.0781 32.4062V34.3125V36.2188H40.9844V34.3125C40.9844 33.7864 41.4114 33.3594 41.9375 33.3594C42.4636 33.3594 42.8906 33.7864 42.8906 34.3125V46.7031Z" fill="#163185"/>
</svg>
